<?xml version="1.0" standalone="no"?>
<!DOCTYPE svg PUBLIC "-//W3C//DTD SVG 20010904//EN"
 "http://www.w3.org/TR/2001/REC-SVG-20010904/DTD/svg10.dtd">
<svg version="1.0" xmlns="http://www.w3.org/2000/svg"
 width="2500.000000pt" height="1667.000000pt" viewBox="0 0 2500.000000 1667.000000"
 preserveAspectRatio="xMidYMid meet">

<g transform="translate(0.000000,1667.000000) scale(0.100000,-0.100000)"
fill="#000000" stroke="none">
<path d="M6440 13751 c-158 -20 -332 -62 -450 -111 -88 -36 -245 -119 -310
-163 -69 -47 -198 -158 -261 -223 -264 -277 -417 -623 -449 -1009 -12 -152 -2
-300 33 -489 1 -8 -160 -12 -598 -16 -596 -5 -600 -5 -665 -28 -185 -66 -311
-176 -395 -343 -65 -129 -68 -145 -72 -563 -3 -234 -1 -408 6 -456 12 -89 50
-206 80 -249 12 -16 21 -33 21 -38 0 -16 122 -143 168 -175 58 -40 143 -81
213 -104 45 -14 113 -18 414 -24 244 -5 373 -11 400 -19 122 -39 254 -147 312
-258 52 -97 63 -157 63 -344 l0 -168 -57 -5 c-164 -17 -245 -29 -313 -46 -41
-11 -78 -20 -81 -20 -4 0 -9 18 -12 39 -2 21 -15 53 -28 70 -38 52 -138 67
-208 31 -62 -31 -66 -65 -21 -166 17 -37 29 -68 28 -69 -15 -15 -164 -85 -179
-85 -11 0 -27 -12 -36 -27 -9 -16 -56 -59 -104 -97 -49 -38 -87 -71 -85 -73 8
-8 140 47 162 68 13 12 24 17 24 11 0 -7 7 -12 15 -12 12 0 14 8 9 38 -3 23
-1 43 8 55 11 14 157 77 181 77 14 0 7 -21 -10 -26 -78 -26 -153 -59 -157 -69
-7 -18 4 -55 16 -55 6 0 78 25 162 56 83 31 212 77 286 104 161 57 220 81 220
87 0 2 -4 13 -10 23 -9 16 -5 19 28 24 79 12 237 17 223 8 -11 -8 -10 -13 7
-30 11 -11 21 -25 24 -32 3 -9 40 3 126 39 101 42 125 49 145 40 24 -11 22 -6
322 -709 148 -347 175 -409 195 -455 5 -11 57 -132 115 -270 59 -137 112 -263
120 -280 7 -16 81 -190 164 -385 136 -319 150 -357 140 -382 -9 -23 -47 -42
-267 -136 -595 -254 -1036 -429 -1337 -530 -187 -63 -240 -76 -262 -64 -13 7
-49 92 -117 274 -54 145 -163 439 -243 653 -80 215 -249 667 -375 1005 -125
338 -233 625 -238 638 -6 13 -10 33 -10 44 0 21 0 21 -25 -2 -37 -35 -65 -100
-65 -153 0 -26 11 -77 25 -114 l25 -66 -29 -77 c-35 -92 -77 -256 -91 -360
-21 -146 -15 -377 15 -540 83 -452 379 -866 788 -1100 95 -55 96 -55 118 -115
73 -199 94 -231 163 -242 34 -5 86 12 311 101 86 34 97 35 240 40 194 5 329
28 493 82 242 80 438 198 628 377 44 41 74 56 200 105 128 49 152 62 171 91
32 47 30 106 -7 194 l-30 73 33 79 c31 74 78 229 92 300 22 113 26 156 32 286
l6 146 105 7 c58 3 157 6 221 6 64 0 208 3 320 7 179 5 207 9 223 25 24 24 23
73 -3 99 -21 21 -26 21 -273 15 -138 -3 -332 -9 -432 -12 l-181 -6 -7 43 c-15
97 -81 300 -131 407 -189 398 -505 687 -925 846 -28 11 -52 29 -65 49 -47 73
-141 95 -249 56 -32 -11 -73 -19 -90 -17 l-31 3 -6 200 c-6 208 -13 247 -53
339 -77 175 -225 306 -411 367 -66 21 -93 23 -430 29 -241 5 -373 11 -400 20
-179 55 -332 221 -370 399 -21 102 -22 763 0 864 40 188 200 352 392 402 48
12 157 15 644 15 l587 0 27 -67 c38 -96 128 -264 187 -350 51 -73 52 -74 70
-55 19 19 19 21 -42 113 -143 217 -218 413 -256 673 -21 141 -14 376 15 519
127 621 601 1099 1229 1240 83 18 129 21 317 22 195 0 232 -3 323 -23 690
-154 1181 -703 1252 -1397 50 -480 -127 -951 -486 -1295 -422 -404 -1026 -539
-1582 -355 -193 65 -352 152 -516 286 -83 67 -90 71 -103 54 -17 -24 0 -42
118 -134 198 -154 458 -270 699 -312 115 -20 159 -24 300 -24 362 0 654 94
960 309 79 56 250 217 314 296 51 62 151 223 188 300 118 245 159 420 163 706
3 195 -13 312 -70 505 -105 356 -335 662 -655 874 -184 122 -356 192 -585 240
-141 29 -354 40 -475 26z m-2100 -4722 c0 -5 -8 -9 -19 -9 -10 0 -31 -10 -46
-22 -24 -19 -27 -26 -21 -65 7 -50 -6 -57 -24 -13 -19 45 2 88 54 111 39 17
56 17 56 -2z m34 -68 c35 -39 4 -90 -47 -77 -38 9 -48 53 -17 78 28 23 43 23
64 -1z m-94 -101 c9 -16 8 -20 -5 -20 -8 0 -15 2 -15 4 0 2 -3 11 -6 20 -9 23
13 20 26 -4z m1430 -126 c416 -220 716 -615 810 -1068 66 -315 35 -657 -85
-940 l-14 -31 -17 40 c-9 22 -34 81 -54 130 -21 50 -58 135 -83 190 -25 55
-116 267 -202 470 -86 204 -162 384 -170 400 -24 54 -71 167 -150 355 -42 102
-100 239 -128 305 -27 66 -60 146 -73 177 l-22 56 41 -14 c23 -8 89 -40 147
-70z m-2135 -1009 c36 -99 71 -193 77 -210 6 -16 17 -43 24 -60 13 -29 132
-350 213 -575 90 -249 207 -573 243 -675 22 -60 51 -138 64 -173 13 -34 24
-67 24 -72 0 -27 -191 102 -314 213 -156 141 -318 376 -399 582 -42 104 -81
254 -98 374 -15 106 -6 408 15 511 17 81 75 274 81 269 2 -2 33 -85 70 -184z
m654 -1536 c13 -38 14 -49 3 -49 -10 0 -32 45 -32 65 0 26 18 16 29 -16z
m1741 -80 c-152 -135 -414 -262 -652 -315 -112 -25 -298 -45 -298 -32 0 4 4 8
10 8 5 0 63 21 127 46 314 122 396 154 493 191 58 23 161 63 230 91 69 27 127
50 130 50 3 1 -15 -17 -40 -39z m-1630 -225 c93 -256 109 -266 311 -194 115
41 139 46 139 31 0 -13 -238 -94 -279 -94 -44 0 -95 25 -116 56 -17 27 -135
342 -135 363 0 41 22 -3 80 -162z"/>
<path d="M20215 13453 c-443 -54 -833 -249 -1116 -559 -64 -70 -145 -180 -184
-249 -16 -27 -29 -51 -30 -52 -1 -3 -1097 58 -1320 72 -44 3 -114 7 -155 10
-41 2 -304 17 -585 33 -346 20 -531 27 -575 21 -125 -15 -237 -61 -363 -148
-49 -33 -104 -96 -161 -183 l-38 -56 -92 91 c-179 179 -402 336 -643 453 -608
297 -1142 267 -1462 -82 -53 -58 -70 -70 -114 -82 -73 -18 -172 -66 -234 -113
-77 -58 -176 -179 -225 -275 -24 -46 -45 -84 -48 -84 -3 0 -13 20 -23 44 -27
66 -109 185 -168 245 -87 87 -211 158 -334 191 -30 8 -53 26 -94 72 -108 124
-264 217 -436 260 -120 30 -384 32 -515 4 -169 -35 -317 -87 -498 -172 l-95
-44 42 -31 c31 -22 41 -36 39 -52 -5 -34 -42 -33 -98 3 -33 21 -56 29 -69 25
-11 -3 -71 -40 -132 -81 -267 -178 -479 -398 -623 -646 l-28 -48 -37 20 c-97
49 -171 65 -296 64 -102 0 -132 -5 -201 -27 -140 -46 -265 -142 -345 -264
-138 -212 -137 -517 3 -716 22 -30 22 -30 -22 -102 -65 -106 -155 -318 -181
-425 -7 -30 -14 -56 -14 -58 -1 -1 -28 7 -60 18 -128 44 -314 46 -456 4 -132
-39 -284 -140 -372 -249 -60 -75 -131 -218 -153 -310 -22 -92 -22 -267 0 -359
50 -209 200 -404 383 -498 34 -18 63 -36 63 -40 0 -4 -25 -50 -56 -103 -225
-383 -354 -888 -354 -1379 0 -102 3 -186 8 -186 4 0 18 16 31 35 25 37 51 44
71 20 11 -13 7 -25 -25 -71 -21 -30 -46 -61 -57 -68 -17 -12 -17 -20 -8 -117
6 -57 17 -142 25 -189 l13 -85 -47 -65 c-86 -119 -172 -311 -216 -480 -25 -95
-54 -287 -66 -435 -19 -233 4 -728 41 -865 6 -19 10 -55 10 -78 0 -34 4 -45
18 -49 22 -5 82 -122 82 -158 0 -18 -7 -26 -26 -31 -20 -5 -24 -11 -20 -28 3
-11 6 -30 7 -41 1 -17 2 -16 8 4 9 33 36 49 58 35 22 -13 92 -123 92 -145 1
-25 -34 -52 -58 -44 -11 3 -35 33 -52 66 -18 33 -34 57 -36 55 -7 -7 54 -228
97 -351 95 -274 215 -493 378 -687 104 -124 278 -270 391 -327 33 -17 41 -27
46 -58 7 -40 12 -72 20 -110 8 -44 49 -149 78 -198 41 -71 130 -177 201 -241
l61 -54 -567 0 -567 0 15 43 c59 162 81 465 50 658 -34 204 -117 409 -240 589
-70 104 -271 302 -381 376 -256 173 -530 271 -835 301 -71 7 -293 7 -345 0
-264 -36 -425 -82 -621 -177 -105 -51 -295 -167 -308 -188 -2 -4 17 -5 42 -3
33 2 63 14 102 40 177 119 377 200 635 255 l30 7 -27 -23 c-30 -25 -58 -93
-58 -140 0 -17 9 -38 23 -51 23 -22 23 -22 7 -92 l-16 -70 -58 0 c-45 0 -60
-4 -72 -19 -17 -24 -18 -33 -1 -33 18 -1 317 -72 327 -78 4 -2 10 4 13 15 4
15 -4 27 -31 45 -20 14 -42 25 -49 25 -23 0 -24 20 -6 96 l18 76 50 -6 c28 -3
73 -12 102 -19 38 -10 55 -11 64 -3 9 8 10 8 5 -1 -8 -14 96 -38 122 -28 9 3
13 2 8 -2 -4 -4 64 -22 151 -39 327 -66 438 -91 437 -100 -1 -5 -9 -49 -19
-98 l-19 -88 -53 6 c-45 5 -56 3 -73 -14 -23 -23 -26 -40 -7 -40 7 0 86 -20
175 -43 l163 -44 -3 30 c-2 25 -12 35 -47 54 -25 13 -46 25 -49 27 -2 3 6 47
18 99 19 85 24 96 46 101 33 9 64 78 71 157 l6 58 56 -39 c305 -215 511 -527
588 -890 27 -128 24 -390 -6 -530 -56 -263 -178 -491 -380 -712 -39 -43 -74
-90 -77 -105 -4 -16 -12 -34 -18 -42 -25 -32 31 9 89 66 67 64 99 101 162 183
50 66 150 224 158 251 6 18 26 19 709 19 l702 0 57 -31 c328 -177 890 -328
1377 -368 245 -20 317 -22 450 -11 366 29 629 139 844 352 l59 58 221 0 c249
0 303 9 415 64 180 89 292 217 351 401 19 59 24 99 28 253 l4 183 55 -61 c138
-152 329 -249 581 -296 48 -9 92 -17 98 -19 7 -2 17 -27 24 -55 30 -125 101
-277 188 -399 47 -66 196 -221 213 -221 5 0 9 17 9 38 0 46 42 412 71 620 11
84 19 154 17 155 -1 2 -23 9 -48 17 -56 19 -90 66 -90 124 0 53 17 85 59 113
31 21 45 23 158 23 121 0 125 -1 167 -29 24 -17 63 -35 87 -40 24 -6 197 -18
384 -26 244 -11 341 -19 347 -28 10 -14 1 -62 -18 -99 -15 -29 -49 -50 -97
-62 -24 -6 -28 -11 -24 -29 22 -87 116 -912 117 -1016 0 -20 105 -11 417 35
24 4 47 12 53 19 5 6 84 201 174 432 l165 420 -133 339 c-73 187 -143 362
-154 389 l-20 50 -208 6 c-115 3 -211 6 -213 7 -2 1 -21 20 -41 42 l-37 40
-60 -25 c-33 -13 -91 -31 -129 -40 -38 -9 -94 -24 -124 -33 -43 -13 -96 -17
-250 -17 -107 0 -225 4 -262 8 -61 8 -67 7 -73 -12 -4 -12 -24 -26 -56 -36
-64 -22 -159 -86 -193 -130 -36 -47 -76 -134 -76 -167 0 -40 -10 -58 -32 -58
-19 0 -20 4 -14 53 9 65 46 147 91 203 46 56 144 121 214 141 l56 17 33 149
c32 146 84 316 125 407 55 126 104 224 153 306 151 259 390 511 620 656 21 14
64 57 94 96 37 48 63 71 80 74 41 5 38 41 -5 68 -75 47 -88 140 -19 140 20 0
39 -19 81 -79 2 -2 6 -2 9 1 3 4 -2 17 -11 31 -21 33 -36 88 -29 110 3 10 56
42 132 79 70 34 130 64 135 66 4 2 30 -43 57 -100 48 -101 93 -261 83 -298 -7
-26 45 -41 159 -47 84 -5 108 -2 169 17 116 38 256 141 361 267 l35 43 12 -26
c11 -24 7 -30 -81 -118 -138 -136 -249 -202 -385 -227 -65 -12 -169 -5 -242
17 -45 13 -52 12 -92 -5 -24 -11 -67 -22 -96 -24 -29 -2 -59 -10 -68 -17 -22
-18 -63 -90 -91 -158 l-22 -55 38 -46 c50 -60 93 -140 183 -341 40 -91 85
-183 99 -206 77 -121 210 -243 389 -356 77 -48 94 -55 117 -48 82 25 264 62
284 56 13 -3 60 -30 106 -59 l84 -54 -153 -6 c-84 -4 -246 -7 -361 -7 l-210 0
-75 30 c-175 70 -315 171 -455 328 l-46 52 -74 -80 c-40 -45 -75 -86 -77 -91
-1 -6 7 -33 19 -62 26 -60 32 -177 11 -215 -7 -13 -11 -25 -9 -27 8 -8 1603
-17 1781 -10 l197 7 0 188 c0 161 3 195 19 232 25 60 51 116 147 322 46 99 84
189 84 201 0 28 -44 53 -68 39 -9 -6 -55 -93 -102 -193 -83 -177 -85 -181 -88
-139 -3 54 -27 175 -58 300 -13 53 -24 99 -24 102 0 3 77 6 170 6 142 0 172 3
176 15 8 19 -48 226 -61 230 -5 2 -27 6 -48 10 -25 4 -54 20 -82 46 -38 35
-46 38 -69 29 -40 -15 -88 15 -56 35 15 9 12 25 -4 25 -7 0 -20 7 -27 16 -11
14 -11 18 5 29 16 13 16 14 -3 20 -29 9 -48 45 -30 56 21 13 162 49 192 49 14
0 28 3 31 8 6 10 -99 371 -112 384 -6 6 -23 12 -39 14 -141 17 -357 35 -534
45 l-214 12 -79 39 c-110 54 -226 138 -323 234 l-83 82 -54 -45 c-42 -34 -62
-44 -83 -41 -23 2 -28 8 -31 33 -2 26 5 36 58 78 l59 47 -50 77 c-83 127 -165
317 -199 461 -9 38 -18 56 -34 62 -39 15 -126 129 -126 165 0 14 -8 15 -47 8
-222 -36 -468 55 -670 250 l-71 69 -64 -134 c-133 -274 -291 -503 -547 -792
-78 -87 -140 -160 -139 -161 2 -2 32 1 67 6 175 25 405 -49 633 -202 81 -55
102 -79 79 -93 -5 -3 -50 21 -100 54 -118 77 -224 131 -331 165 -73 24 -102
28 -205 29 -162 1 -185 -7 -240 -93 -81 -125 -153 -284 -218 -482 -61 -184
-126 -333 -184 -420 -18 -27 -24 -48 -21 -70 4 -28 3 -30 -20 -26 -19 4 -37
-8 -90 -60 -157 -154 -322 -225 -552 -239 -284 -18 -526 75 -727 276 -57 57
-60 55 -38 -35 19 -77 19 -78 -4 -92 -17 -11 -20 -3 -46 120 -26 123 -32 139
-92 239 -83 139 -131 251 -204 473 -83 250 -150 380 -307 592 -312 422 -489
778 -612 1235 -91 334 -134 722 -106 958 3 19 7 60 11 90 40 337 201 679 444
941 44 48 109 108 143 135 35 26 54 44 43 39 -57 -23 -158 -44 -218 -44 -135
-2 -299 50 -371 117 -31 30 -60 87 -51 102 13 20 35 9 49 -24 40 -96 264 -170
437 -146 178 25 267 113 277 271 12 208 -87 399 -263 504 -121 72 -256 102
-635 140 -140 15 -288 33 -329 41 -126 26 -211 74 -172 98 5 3 34 -5 64 -19
75 -33 175 -50 472 -79 362 -37 466 -60 610 -134 183 -95 299 -298 299 -527 0
-96 -24 -174 -65 -211 -41 -37 -15 -30 54 15 337 222 780 343 1227 336 206 -3
318 -15 492 -51 214 -45 483 -142 656 -236 82 -45 82 -45 61 54 -39 181 -210
356 -349 357 -49 1 -128 -39 -174 -87 -36 -38 -66 -46 -66 -18 0 21 93 104
140 125 65 30 152 28 216 -4 149 -75 267 -249 283 -420 l6 -70 76 -50 c498
-329 812 -810 877 -1345 9 -75 9 -422 -1 -488 -20 -145 -63 -329 -107 -465
l-49 -150 61 -63 c106 -111 277 -214 413 -249 61 -15 181 -20 248 -8 33 5 41
12 63 55 l25 50 -45 53 c-45 52 -57 87 -35 101 6 4 50 -33 103 -85 103 -103
95 -102 178 -23 23 22 42 32 52 29 26 -10 19 -23 -43 -79 l-59 -53 31 -39 c30
-37 32 -45 30 -108 -6 -153 113 -328 318 -468 86 -59 104 -68 111 -52 6 15
115 92 129 92 22 0 39 -21 39 -46 0 -15 -16 -34 -52 -60 l-52 -38 70 -33 c108
-49 279 -103 389 -122 l100 -18 26 76 c33 100 72 173 114 220 20 21 35 49 35
62 0 38 36 157 74 249 20 46 36 85 36 86 0 1 -13 -3 -29 -9 -37 -14 -61 -3
-61 26 0 31 24 52 47 41 10 -4 21 -8 25 -8 3 -1 10 -5 15 -10 5 -5 3 -6 -4 -2
-7 4 -13 2 -13 -3 0 -10 14 -15 33 -12 5 1 6 -3 3 -8 -9 -14 72 -48 189 -79
113 -31 124 -44 86 -108 -27 -46 -26 -56 4 -42 13 6 23 14 21 17 -2 3 9 6 24
6 15 0 26 -3 23 -7 -2 -5 1 -8 8 -8 7 0 9 -12 5 -37 -3 -21 -6 -47 -7 -58 0
-13 -2 -16 -7 -8 -6 9 -16 10 -43 2 -27 -9 -39 -20 -47 -43 -15 -42 -15 -46 4
-46 9 0 12 5 8 12 -4 7 -3 8 4 4 16 -10 63 4 55 17 -3 6 6 2 20 -9 17 -12 26
-28 25 -44 -1 -24 78 -258 104 -309 11 -21 26 -27 113 -42 245 -42 254 -46
387 -169 42 -39 78 -70 81 -70 8 0 -11 95 -41 200 -54 190 -116 326 -210 459
l-45 64 16 111 c31 209 39 355 34 611 -6 262 -23 416 -71 620 -27 117 -107
360 -124 377 -8 8 -155 -65 -245 -122 -245 -155 -319 -186 -523 -213 -50 -7
-120 -10 -156 -7 l-65 5 0 -62 c0 -198 -209 -340 -426 -289 -226 53 -446 266
-528 511 -34 100 -53 238 -43 313 l7 54 -115 117 c-121 122 -268 288 -268 302
0 4 -21 11 -47 14 -202 27 -421 140 -555 284 -114 123 -167 247 -175 413 -7
133 6 206 57 316 49 104 124 182 201 207 91 30 227 8 288 -48 50 -47 81 -168
48 -195 -22 -18 -35 1 -35 49 2 99 -72 159 -199 162 -81 2 -126 -17 -184 -76
-130 -133 -173 -374 -103 -586 24 -70 97 -181 157 -239 66 -61 174 -133 265
-174 67 -31 220 -74 228 -65 3 3 -6 27 -19 54 -45 87 -60 157 -55 257 3 85 7
98 52 190 41 84 61 112 134 186 126 125 256 207 470 295 257 105 583 175 899
192 61 3 117 9 123 13 17 11 -61 241 -125 368 -94 187 -226 372 -374 525 -80
83 -283 251 -407 336 -76 52 -93 69 -102 100 -16 50 -100 221 -151 304 -22 37
-41 72 -41 78 0 26 67 126 126 188 96 102 210 162 344 181 48 7 1195 -50 1301
-64 19 -3 304 -19 634 -37 330 -18 604 -35 609 -40 4 -4 -1 -36 -12 -71 -41
-124 -54 -183 -69 -323 -37 -326 63 -695 264 -978 69 -98 251 -283 347 -354
222 -164 487 -275 782 -328 166 -29 440 -29 597 0 15 3 37 7 50 9 373 66 756
280 995 557 40 46 91 112 113 146 35 53 47 63 78 69 114 21 148 84 117 216
-15 64 -14 69 9 162 72 285 58 591 -41 851 -65 175 -177 363 -283 478 l-55 59
-42 166 c-39 151 -46 170 -74 194 -18 14 -44 28 -58 31 -15 3 -83 -10 -151
-29 l-125 -34 -41 19 c-162 75 -385 140 -555 161 -78 9 -366 12 -435 3z m420
-54 c183 -21 547 -129 512 -151 -7 -4 -36 -12 -64 -18 l-53 -11 6 -52 c3 -29
9 -55 12 -59 7 -7 46 3 274 68 141 41 162 42 183 10 9 -13 34 -88 55 -167 22
-79 47 -166 55 -194 20 -67 173 -659 190 -735 2 -8 15 -64 30 -125 39 -162
103 -481 111 -550 4 -46 3 -63 -7 -71 -15 -12 -127 -40 -414 -104 -99 -23
-270 -61 -380 -86 -110 -24 -207 -46 -215 -49 -8 -2 -107 -24 -220 -49 -113
-24 -212 -47 -220 -50 -8 -3 -26 -7 -40 -10 -14 -2 -97 -21 -185 -41 -162 -37
-184 -42 -220 -50 -41 -8 -381 -86 -395 -90 -8 -2 -81 -18 -162 -36 -143 -32
-148 -32 -168 -14 -11 10 -20 25 -20 34 0 9 -36 52 -81 96 -140 138 -236 271
-313 435 -294 625 -90 1347 499 1764 220 156 495 264 763 301 121 16 348 18
467 4z m1193 -709 c107 -158 182 -341 217 -530 22 -115 25 -340 6 -454 -24
-148 -20 -153 -87 129 -15 63 -163 679 -204 852 -17 67 -30 126 -30 130 1 11
32 -30 98 -127z m-10897 4 c62 -48 74 -75 39 -94 -18 -9 -31 -4 -85 36 -45 33
-65 54 -65 69 0 50 36 47 111 -11z m185 -151 c44 -37 54 -51 52 -72 -4 -39
-40 -33 -98 14 -49 39 -68 73 -55 94 13 22 48 10 101 -36z m993 -112 c24 -15
5 -41 -32 -41 -18 0 -59 -7 -92 -15 -198 -52 -315 -213 -315 -435 0 -47 4 -62
25 -84 45 -49 78 -114 71 -142 -7 -28 16 -64 40 -64 7 0 19 -8 26 -18 20 -27
67 -53 138 -78 37 -13 66 -30 68 -39 7 -32 -29 -28 -139 19 -12 5 -15 1 -15
-16 2 -42 -31 -33 -60 19 -15 26 -50 73 -78 103 -55 61 -102 152 -111 215 -5
28 -13 44 -27 50 -12 6 -39 36 -61 67 -34 48 -38 59 -27 72 20 25 38 19 68
-24 15 -21 29 -39 32 -40 3 0 10 31 16 68 28 174 144 308 314 361 96 30 137
36 159 22z m-816 -60 c32 -33 57 -62 57 -65 0 -9 -31 -36 -41 -36 -18 0 -119
102 -119 119 0 20 19 41 35 41 7 0 37 -27 68 -59z m2354 -23 c-3 -13 -19 -63
-36 -112 -64 -182 -64 -344 0 -474 99 -202 399 -329 621 -262 108 32 222 152
248 260 21 90 -7 193 -66 239 -27 21 -27 51 0 51 22 0 81 -72 101 -123 26 -68
17 -177 -20 -254 -51 -104 -159 -192 -274 -223 -61 -16 -189 -14 -263 5 -214
55 -376 200 -423 380 -31 121 -13 308 45 456 25 63 37 79 57 79 11 0 14 -7 10
-22z m-2193 -153 c32 -37 46 -62 44 -77 -5 -39 -35 -32 -83 19 -45 48 -62 83
-50 102 14 24 45 8 89 -44z m-1871 -131 c67 -12 39 -24 -40 -18 -206 15 -424
-95 -533 -270 -32 -51 -50 -68 -50 -48 0 20 81 131 126 173 66 61 116 93 192
124 94 38 214 53 305 39z m105 -99 c158 -50 290 -175 348 -330 112 -300 -63
-638 -376 -726 -60 -16 -202 -17 -270 0 -144 35 -295 154 -358 283 -118 241
-61 508 145 679 136 112 336 149 511 94z m-768 -434 c0 -22 -4 -43 -10 -46 -6
-4 -10 12 -10 39 0 25 5 46 10 46 6 0 10 -18 10 -39z m6802 -43 c11 -76 -32
-185 -89 -226 -120 -84 -212 -102 -578 -111 -280 -7 -304 -9 -360 -31 -85 -32
-148 -97 -170 -175 -17 -58 -17 -157 1 -252 5 -28 3 -33 -14 -33 -47 0 -63
218 -23 320 25 65 86 132 151 165 86 42 132 48 400 50 188 2 279 7 345 19 95
18 194 58 234 96 33 32 61 98 61 146 0 22 3 44 7 47 14 14 32 6 35 -15z
m-3765 -126 c24 -59 25 -92 3 -92 -14 0 -72 131 -65 148 11 29 38 5 62 -56z
m82 -224 c25 -73 26 -88 7 -88 -16 0 -61 123 -51 140 13 21 24 8 44 -52z
m9776 -15 c-83 -129 -263 -304 -420 -409 -507 -337 -1185 -385 -1735 -121
l-105 50 95 23 c52 13 106 25 120 27 14 3 61 14 105 25 44 12 145 35 223 52
79 17 172 37 205 45 56 14 697 155 792 175 22 4 101 22 175 38 74 17 214 47
310 67 144 29 221 46 249 54 2 1 -5 -11 -14 -26z m-9708 -219 c14 -62 15 -84
4 -84 -8 0 -41 103 -41 129 0 32 26 -1 37 -45z m42 -221 c0 -31 -2 -34 -9 -18
-12 28 -12 55 0 55 6 0 10 -17 9 -37z m-3566 -183 c5 -4 -44 -7 -110 -7 -137
1 -218 -16 -330 -71 -120 -58 -228 -160 -298 -279 -18 -31 -35 -43 -35 -25 0
4 14 30 31 58 117 184 295 300 514 335 57 9 216 2 228 -11z m22 -85 c217 -45
406 -216 482 -432 24 -68 27 -94 28 -198 0 -134 -10 -183 -62 -290 -86 -179
-252 -310 -446 -352 -102 -21 -249 -13 -345 21 -313 108 -495 428 -427 751 38
184 176 361 345 444 139 68 280 86 425 56z m-846 -517 c-1 -43 -13 -86 -20
-73 -9 15 2 105 12 105 5 0 9 -15 8 -32z m2503 -307 c103 -40 182 -128 230
-257 18 -50 21 -81 22 -204 1 -137 0 -148 -25 -200 -39 -82 -90 -135 -167
-172 -60 -30 -76 -33 -152 -33 -68 0 -93 5 -127 22 -48 26 -84 68 -76 89 8 21
31 17 45 -7 39 -64 180 -82 280 -37 77 36 113 71 149 143 26 53 32 80 36 152
11 210 -68 383 -205 450 -53 26 -65 28 -182 28 -118 -1 -131 -3 -225 -36 -55
-20 -138 -52 -185 -72 -132 -56 -199 -70 -309 -65 -73 3 -106 9 -136 25 -66
35 -78 47 -71 71 l7 21 39 -25 c115 -76 269 -69 474 22 111 49 209 83 286 99
89 20 220 13 292 -14z m-695 -788 c2 -6 -22 -28 -54 -49 -32 -21 -101 -81
-153 -133 -100 -101 -153 -185 -184 -289 -14 -50 -14 -53 2 -48 17 5 67 9 90
7 22 -2 14 -40 -10 -45 -13 -3 -41 -9 -63 -13 l-40 -9 1 -75 c2 -95 24 -183
74 -286 212 -446 579 -558 980 -298 67 43 107 52 98 22 -7 -21 -151 -112 -229
-145 -89 -36 -207 -62 -286 -62 -231 1 -448 159 -586 428 -64 124 -88 208 -94
332 -6 119 13 214 67 319 42 83 135 197 216 262 113 92 160 115 171 82z m-50
-509 c9 -24 -15 -34 -89 -34 -69 0 -89 10 -68 35 18 22 148 21 157 -1z m244
-6 c14 -22 -2 -28 -76 -28 -75 0 -92 8 -81 37 5 13 18 15 78 9 40 -4 75 -12
79 -18z m154 -12 c68 -12 85 -18 85 -31 0 -8 -3 -16 -8 -19 -9 -5 -139 18
-148 27 -13 12 6 38 23 33 10 -3 32 -8 48 -10z m-875 -51 c0 -19 -7 -26 -37
-35 -68 -19 -120 -23 -128 -10 -11 18 14 36 70 54 76 22 95 21 95 -9z m1135
-14 c50 -18 76 -52 38 -50 -42 1 -128 35 -131 52 -4 22 26 21 93 -2z m-1362
-45 c7 -19 -7 -30 -78 -61 -64 -29 -88 -27 -83 7 2 16 18 28 58 44 64 27 96
30 103 10z m1575 -42 c57 -25 83 -54 47 -54 -25 0 -125 53 -125 67 0 18 6 17
78 -13z m-1798 -54 c8 -16 6 -22 -12 -33 -118 -72 -153 -80 -146 -35 2 16 21
33 63 55 71 38 81 40 95 13z m-212 -126 c2 -17 -11 -32 -55 -63 -63 -45 -75
-48 -92 -27 -17 20 -6 37 52 78 58 41 90 45 95 12z m-204 -120 c25 -10 19 -38
-16 -70 -81 -75 -118 -88 -118 -39 0 16 17 39 52 69 56 49 57 49 82 40z m-166
-187 c5 -24 -86 -122 -113 -122 -13 0 -21 8 -23 24 -3 17 9 37 45 73 50 50 85
60 91 25z m9946 -134 c11 -27 -16 -43 -88 -54 -79 -13 -99 -8 -94 23 3 26 54
44 129 47 36 1 48 -3 53 -16z m-240 -39 c3 -9 6 -20 6 -25 0 -13 -48 -35 -109
-49 -48 -11 -56 -11 -66 3 -7 9 -16 13 -20 9 -4 -4 -3 3 4 15 14 28 23 33 80
48 65 18 98 18 105 -1z m-439 -54 c-3 -5 -12 -10 -18 -10 -7 0 -6 4 3 10 19
12 23 12 15 0z m-86 -124 c11 -14 6 -15 -27 -7 -4 1 8 21 12 21 2 0 9 -6 15
-14z m-154 -100 c0 -25 -8 -35 -55 -62 -61 -37 -91 -42 -111 -18 -18 22 -3 43
62 81 69 40 104 40 104 -1z m691 -54 c-17 -16 -18 -16 -5 5 7 12 15 20 18 17
3 -2 -3 -12 -13 -22z m-896 -68 c0 -19 -13 -33 -62 -64 -69 -45 -92 -49 -108
-19 -17 31 -8 43 66 87 74 45 104 44 104 -4z m-8222 -120 c29 -14 73 -46 97
-71 84 -84 129 -177 270 -559 165 -448 262 -636 402 -784 72 -77 146 -123 228
-145 109 -28 221 -12 357 53 104 49 178 114 208 184 44 103 13 252 -81 383
-30 42 -32 65 -5 65 17 0 71 -76 106 -152 78 -168 58 -312 -59 -421 -181 -167
-467 -216 -651 -109 -70 40 -176 148 -242 246 -103 155 -164 288 -320 706
-122 326 -162 411 -230 486 -113 123 -253 137 -399 38 -79 -53 -109 -30 -37
28 97 79 255 102 356 52z m8020 -6 c3 -24 -6 -33 -66 -73 -60 -40 -73 -45 -91
-35 -39 21 -27 55 37 99 70 49 115 53 120 9z m-6258 -14 c283 -53 706 -293
880 -499 128 -152 159 -299 91 -441 -34 -71 -105 -154 -132 -154 -29 0 -23 17
25 72 72 83 91 129 91 228 0 76 -4 93 -33 152 -107 217 -524 495 -882 589
-120 31 -278 32 -375 2 -161 -51 -277 -163 -356 -348 -16 -37 -33 -61 -44 -64
-51 -10 37 186 130 287 90 98 208 165 325 185 60 10 204 6 280 -9z m5471 -534
c36 -20 23 -55 -42 -109 -62 -52 -86 -60 -107 -39 -27 27 -13 56 50 108 68 54
70 55 99 40z m-173 -177 c2 -16 -2 -23 -12 -23 -9 0 -16 -5 -16 -11 0 -6 -6
-9 -14 -6 -7 3 -27 -8 -42 -25 -33 -34 -78 -60 -88 -51 -16 17 -2 42 51 91 46
42 64 52 88 50 23 -2 31 -9 33 -25z m-204 -131 c3 -5 -11 -14 -32 -20 l-37
-11 24 19 c25 22 37 25 45 12z m1425 -42 c231 -14 310 -26 337 -51 20 -19 81
-195 70 -206 -2 -3 -14 28 -26 69 -40 137 -42 141 -115 152 -70 11 -255 25
-420 32 -88 3 -162 8 -164 10 -8 7 139 4 318 -6z m64 -172 c24 -28 22 -73 -5
-98 -45 -42 -121 -12 -121 48 0 72 79 103 126 50z m-1745 -13 c-2 -30 -5 -35
-28 -35 -14 0 -31 -5 -38 -12 -7 -7 -12 -8 -12 -3 0 8 70 85 77 85 2 0 3 -16
1 -35z m-88 -114 c17 -34 11 -48 -41 -98 -68 -64 -75 -68 -105 -49 -39 26 -31
55 33 113 61 55 96 66 113 34z m-182 -153 c28 -28 13 -62 -49 -117 -54 -48
-64 -53 -88 -45 -19 7 -27 17 -29 40 -3 28 4 38 58 83 63 52 86 61 108 39z
m-168 -177 c15 -28 15 -27 -47 -92 -57 -60 -94 -74 -121 -47 -23 23 -12 53 40
105 42 42 59 53 85 53 22 0 36 -6 43 -19z m-180 -161 c17 -32 3 -56 -61 -110
-66 -55 -74 -58 -101 -33 -31 28 -22 55 39 110 64 58 104 68 123 33z m-878
-196 c62 -77 156 -155 259 -217 64 -38 80 -44 79 -30 -1 10 -2 23 -1 30 2 17
120 113 139 113 29 0 45 -17 45 -48 0 -29 -46 -81 -109 -123 -23 -15 -22 -16
64 -47 48 -18 110 -39 139 -47 56 -17 72 -30 54 -48 -12 -12 -91 9 -226 62
l-90 36 -55 -53 c-30 -30 -65 -58 -76 -62 -54 -21 -91 25 -59 73 9 14 34 37
55 52 22 15 40 31 40 35 0 5 -20 20 -44 34 -122 71 -292 241 -280 278 9 28
-13 65 -53 89 -31 19 -32 22 -16 34 15 12 21 7 51 -44 19 -31 57 -84 84 -117z
m-204 125 c-10 -30 -249 -96 -471 -130 -247 -38 -762 -30 -802 13 -7 7 6 9 45
4 194 -23 290 -28 433 -22 280 12 537 54 705 116 91 33 95 33 90 19z m-1378
-84 c0 -2 -7 -5 -15 -9 -9 -3 -15 0 -15 9 0 9 6 12 15 9 8 -4 15 -7 15 -9z
m2274 -4 c25 -27 15 -50 -49 -110 -56 -53 -83 -62 -109 -35 -29 28 -19 56 42
111 61 56 89 64 116 34z m-891 -122 c-15 -15 -189 -69 -304 -93 -319 -69 -800
-76 -1011 -16 -44 13 -53 36 -10 25 147 -38 168 -39 442 -39 234 0 296 3 417
22 159 25 297 58 393 95 61 23 93 26 73 6z m-1409 -65 c21 -8 20 -17 -4 -32
-18 -11 -20 -10 -20 13 0 27 1 28 24 19z m1401 -140 c-53 -40 -348 -112 -560
-135 -275 -32 -765 -4 -765 42 0 7 10 9 23 6 200 -51 555 -56 847 -12 173 26
367 75 420 106 8 4 24 8 35 8 20 0 20 0 0 -15z m-1445 -29 c9 -11 5 -23 -21
-61 -154 -224 -438 -285 -690 -148 -27 15 -81 61 -119 101 -71 74 -88 113 -50
113 11 0 20 -4 20 -10 0 -5 27 -38 60 -73 98 -105 217 -157 362 -157 85 0 172
23 241 63 49 29 152 135 162 167 8 24 18 25 35 5z m1788 -111 c38 -27 28 -57
-39 -113 -36 -30 -71 -51 -85 -51 -27 0 -58 39 -48 63 9 24 122 115 144 117 3
0 16 -7 28 -16z m-7358 -78 c95 -19 251 -64 263 -76 5 -4 -16 -1 -45 7 -29 8
-74 15 -99 16 -26 1 -45 5 -43 8 2 4 -18 9 -44 13 -203 29 -272 37 -377 42
-191 9 -149 17 65 11 123 -3 226 -11 280 -21z m-261 -16 c12 -6 19 -15 16 -19
-2 -5 -81 -6 -173 -3 -162 5 -170 4 -190 -16 -22 -22 -47 -96 -37 -112 4 -6
-3 -7 -17 -1 -28 10 -27 45 4 104 30 61 59 68 229 63 82 -2 156 -9 168 -16z
m1596 -52 c47 -65 55 -97 30 -118 -27 -22 -59 -2 -102 65 -48 73 -49 77 -27
99 29 29 52 18 99 -46z m2702 -39 c-237 -265 -247 -518 -28 -739 78 -79 149
-115 254 -131 77 -11 137 -7 382 26 196 26 338 15 457 -38 102 -45 220 -139
200 -159 -8 -8 -6 -18 5 -34 25 -39 0 -65 -89 -93 -88 -28 -118 -20 -118 28 0
37 13 47 95 74 l68 23 -42 36 c-149 127 -325 157 -653 109 -232 -33 -343 -27
-456 26 -110 52 -238 202 -282 333 -19 54 -21 80 -18 160 7 148 66 272 190
403 57 60 69 69 82 58 14 -11 8 -22 -47 -82z m2833 72 c0 -14 -170 -53 -340
-77 -156 -22 -492 -29 -633 -14 -100 11 -141 22 -126 34 2 2 51 -3 109 -11
219 -30 646 -3 880 56 87 22 110 24 110 12z m308 -43 c7 -7 12 -24 12 -38 0
-20 -14 -37 -62 -73 -70 -54 -104 -58 -125 -18 -15 32 -7 46 59 98 54 43 94
53 116 31z m-5746 -130 c34 -26 98 -113 98 -133 0 -27 -18 -45 -45 -45 -21 0
-88 69 -114 118 -16 30 4 66 40 71 3 1 12 -5 21 -11z m1898 -13 c0 -8 -38 -34
-91 -60 -280 -141 -520 -357 -705 -637 -35 -53 -68 -99 -73 -102 -5 -3 -14 0
-20 7 -23 28 155 274 308 428 139 139 276 240 446 331 92 49 135 59 135 33z
m3648 -1 c40 -28 29 -58 -44 -114 -37 -27 -75 -50 -85 -50 -25 0 -24 5 6 44
13 18 34 53 45 78 18 41 30 54 50 57 3 1 16 -6 28 -15z m-7474 -2 c3 -5 -1 -9
-9 -9 -8 0 -12 4 -9 9 3 4 7 8 9 8 2 0 6 -4 9 -8z m99 -29 c-7 -2 -19 -2 -25
0 -7 3 -2 5 12 5 14 0 19 -2 13 -5z m144 -29 c-3 -3 -12 -4 -19 -1 -8 3 -5 6
6 6 11 1 17 -2 13 -5z m148 -24 c-3 -5 -12 -10 -18 -10 -7 0 -6 4 3 10 19 12
23 12 15 0z m80 -28 c-3 -3 -11 0 -18 7 -9 10 -8 11 6 5 10 -3 15 -9 12 -12z
m50 -10 c-3 -3 -11 0 -18 7 -9 10 -8 11 6 5 10 -3 15 -9 12 -12z m254 -49 c2
-1 -5 -1 -16 0 -11 0 -20 7 -20 14 0 10 4 10 16 1 9 -7 18 -13 20 -15z m36 -3
c-3 -5 -12 -10 -18 -10 -7 0 -6 4 3 10 19 12 23 12 15 0z m1328 -49 c32 -33
57 -63 57 -68 0 -19 -32 -53 -50 -53 -24 0 -130 110 -130 136 0 11 5 25 12 32
25 25 55 12 111 -47z m5157 20 c0 -15 -128 -103 -142 -98 -8 2 0 11 17 20 17
9 50 32 75 51 51 40 50 40 50 27z m-196 -135 c-9 -23 -128 -96 -157 -96 -24 0
-47 23 -47 49 0 5 25 15 56 21 31 7 73 18 93 25 48 18 62 18 55 1z m-4791 -47
c45 -40 57 -57 57 -80 0 -22 -7 -32 -25 -41 -22 -10 -29 -8 -53 13 -107 93
-118 112 -86 143 25 26 47 19 107 -35z m4580 -41 c20 -31 -1 -63 -66 -101 -75
-43 -101 -46 -122 -13 -23 35 -8 57 71 105 69 41 96 43 117 9z m-4397 -110
c65 -49 79 -70 64 -98 -17 -32 -60 -25 -120 20 -75 56 -84 74 -54 104 25 25
51 19 110 -26z m4178 -1 c12 -9 17 -23 14 -42 -2 -24 -15 -37 -63 -67 -65 -40
-105 -47 -129 -22 -35 35 -21 57 73 111 62 36 79 39 105 20z m-3981 -131 c29
-19 59 -41 66 -50 20 -23 6 -64 -25 -72 -36 -9 -164 76 -164 109 0 56 48 61
123 13z m3780 3 c22 -35 0 -65 -77 -104 -73 -37 -76 -37 -101 -21 -24 16 -33
49 -17 72 4 6 34 25 67 42 64 34 111 38 128 11z m-235 -95 c14 -10 22 -25 22
-45 0 -28 -6 -33 -76 -65 -87 -40 -95 -41 -118 -15 -33 37 -17 63 63 104 40
20 77 37 80 37 4 0 17 -7 29 -16z m-3333 -32 c62 -33 70 -41 73 -69 3 -27 -1
-35 -22 -44 -21 -10 -34 -6 -98 29 -61 33 -74 44 -76 68 -4 27 18 54 42 54 6
0 43 -17 81 -38z m3119 -68 c19 -19 21 -58 4 -72 -27 -22 -144 -63 -165 -57
-12 3 -28 15 -34 26 -16 31 14 66 81 94 66 28 93 30 114 9z m-2908 -31 c75
-31 102 -60 85 -92 -18 -33 -46 -34 -113 -5 -99 43 -117 67 -81 106 21 24 30
23 109 -9z m247 -93 c44 -17 58 -27 63 -47 16 -61 -37 -73 -141 -32 -52 21
-60 28 -63 54 -4 35 22 58 58 51 14 -2 51 -14 83 -26z m2198 -30 c27 -15 25
-66 -3 -83 -34 -21 -110 -39 -149 -35 -31 3 -34 6 -37 37 -2 18 1 38 6 43 9 9
126 46 150 47 7 1 22 -4 33 -9z m-1983 -34 c60 -16 78 -28 85 -57 7 -25 -25
-59 -50 -54 -120 24 -163 44 -163 78 0 48 35 57 128 33z m3162 -201 c-36 -188
-189 -353 -379 -409 -40 -12 -98 -16 -218 -16 -90 0 -163 2 -163 4 0 3 20 47
45 98 25 51 59 136 75 189 l30 96 43 6 c23 3 51 8 62 10 11 3 43 10 70 16 134
30 280 94 385 168 l55 39 3 -71 c2 -38 -2 -97 -8 -130z m-1408 168 c46 -42 9
-84 -91 -103 -84 -16 -104 -9 -109 37 -3 32 13 51 50 59 12 2 39 8 58 13 54
14 72 12 92 -6z m-1507 -23 c61 -14 75 -25 75 -61 0 -44 -25 -51 -117 -34
-100 19 -128 50 -84 94 21 21 38 21 126 1z m1273 -22 c16 -16 15 -56 -1 -73
-20 -20 -161 -39 -187 -25 -23 12 -28 61 -7 78 30 25 175 40 195 20z m-1038
-13 c65 -7 80 -18 80 -56 0 -43 -26 -52 -117 -39 -42 5 -82 15 -90 21 -34 29
5 94 51 84 12 -2 46 -7 76 -10z m794 -21 c18 -18 20 -38 6 -64 -8 -14 -27 -20
-95 -25 -96 -8 -115 -1 -115 45 0 35 15 48 65 53 90 9 124 7 139 -9z m-484
-14 c26 -26 25 -45 -1 -71 -19 -19 -28 -21 -98 -14 -102 9 -136 41 -94 87 25
27 165 26 193 -2z m238 4 c27 -19 28 -48 4 -72 -14 -14 -36 -19 -90 -21 -86
-2 -112 9 -112 48 0 46 7 49 150 59 14 1 36 -5 48 -14z"/>
<path d="M20865 13173 c-11 -3 -58 -18 -105 -33 -47 -15 -140 -42 -208 -60
l-123 -33 6 -51 c4 -28 9 -53 12 -56 2 -3 50 8 106 23 201 54 362 99 365 102
6 6 -19 115 -26 114 -4 -1 -16 -4 -27 -6z"/>
<path d="M20255 12999 c-16 -5 -118 -33 -225 -63 l-195 -54 3 -53 c2 -29 5
-55 8 -58 4 -4 134 29 194 49 14 5 79 23 145 40 66 18 123 35 128 39 9 9 -11
112 -21 110 -4 -1 -20 -5 -37 -10z"/>
<path d="M19689 12846 c-6 -7 -183 -55 -228 -62 -76 -13 -82 -19 -75 -71 3
-27 9 -53 13 -59 4 -7 44 0 126 23 66 18 137 38 158 44 l39 10 -7 42 c-9 51
-19 80 -26 73z"/>
<path d="M19190 12711 c-8 -5 -40 -14 -70 -21 -74 -17 -104 -33 -136 -76 -45
-58 -42 -156 11 -354 2 -8 18 -78 36 -155 17 -77 44 -196 59 -265 54 -240 88
-397 136 -622 26 -126 51 -228 54 -228 4 0 3 24 -2 53 -4 28 -17 126 -28 217
-11 91 -23 181 -26 200 -15 94 -83 487 -87 505 -3 11 -19 83 -36 160 -17 77
-45 186 -61 241 -49 166 -49 166 124 210 l108 28 -6 36 c-11 72 -12 75 -37 77
-13 1 -31 -2 -39 -6z"/>
<path d="M20442 11995 c0 -16 2 -22 5 -12 2 9 2 23 0 30 -3 6 -5 -1 -5 -18z"/>
<path d="M20704 11948 l-19 -23 23 19 c21 18 27 26 19 26 -2 0 -12 -10 -23
-22z"/>
<path d="M20669 11943 c-13 -16 -12 -17 4 -4 9 7 17 15 17 17 0 8 -8 3 -21
-13z"/>
<path d="M20831 11944 c0 -11 3 -14 6 -6 3 7 2 16 -1 19 -3 4 -6 -2 -5 -13z"/>
<path d="M20390 11946 c0 -2 8 -10 18 -17 15 -13 16 -12 3 4 -13 16 -21 21
-21 13z"/>
<path d="M21163 11745 c0 -22 2 -30 4 -17 2 12 2 30 0 40 -3 9 -5 -1 -4 -23z"/>
<path d="M20811 11754 c0 -11 3 -14 6 -6 3 7 2 16 -1 19 -3 4 -6 -2 -5 -13z"/>
<path d="M21112 11750 c0 -14 2 -19 5 -12 2 6 2 18 0 25 -3 6 -5 1 -5 -13z"/>
<path d="M20533 11605 c0 -33 2 -45 4 -27 2 18 2 45 0 60 -2 15 -4 0 -4 -33z"/>
<path d="M21069 11533 c-13 -16 -12 -17 4 -4 16 13 21 21 13 21 -2 0 -10 -8
-17 -17z"/>
<path d="M20580 11436 c0 -2 8 -10 18 -17 15 -13 16 -12 3 4 -13 16 -21 21
-21 13z"/>
<path d="M20565 11390 c10 -11 20 -20 23 -20 3 0 -3 9 -13 20 -10 11 -20 20
-23 20 -3 0 3 -9 13 -20z"/>
<path d="M20668 11333 c7 -3 16 -2 19 1 4 3 -2 6 -13 5 -11 0 -14 -3 -6 -6z"/>
<path d="M6531 9898 c-126 -27 -222 -79 -318 -174 -70 -68 -89 -95 -127 -175
-50 -106 -66 -177 -66 -294 0 -278 179 -524 443 -611 70 -24 99 -28 202 -28
135 0 195 13 304 69 169 86 296 253 336 441 68 319 -116 649 -416 749 -111 37
-252 46 -358 23z m254 -38 c4 -6 -31 -10 -97 -10 -118 0 -194 -16 -286 -61
-76 -37 -182 -133 -233 -212 -21 -32 -40 -54 -43 -49 -10 17 69 125 135 187
114 106 240 153 411 154 61 1 109 -3 113 -9z m10 -75 c201 -42 368 -202 420
-401 37 -142 7 -315 -75 -441 -183 -279 -582 -326 -828 -98 -118 109 -175 236
-176 395 -1 196 85 360 242 463 135 88 265 114 417 82z m-714 -453 c-4 -50
-21 -66 -21 -20 0 40 9 72 18 63 4 -3 5 -23 3 -43z"/>
<path d="M15860 8723 c0 -215 112 -445 285 -586 33 -27 98 -68 145 -91 82 -40
88 -41 185 -41 92 0 104 2 153 29 88 49 141 132 142 223 0 52 -16 69 -74 77
-180 27 -501 195 -719 375 -38 31 -80 64 -93 74 l-24 19 0 -79z"/>
<path d="M3797 8470 l-28 -27 25 4 c14 3 27 14 30 26 7 29 5 29 -27 -3z"/>
<path d="M13435 7930 c-3 -5 -3 -15 1 -22 4 -6 3 -8 -4 -4 -13 8 -13 8 -62
-314 -22 -146 -45 -290 -50 -320 -5 -30 -11 -73 -14 -95 -3 -22 -17 -112 -31
-200 -14 -88 -45 -293 -70 -455 -69 -452 -103 -673 -125 -810 -11 -69 -22
-138 -24 -155 -2 -16 -9 -63 -16 -103 -12 -75 -7 -122 10 -92 4 8 20 83 35
165 14 83 28 161 31 175 12 67 38 213 69 390 18 107 56 321 83 475 27 154 52
294 55 310 2 17 21 122 41 235 20 113 39 221 42 240 3 19 7 42 9 50 5 17 39
207 61 340 23 142 17 200 -22 200 -7 0 -16 -4 -19 -10z"/>
<path d="M12186 7908 c-23 -32 -21 -54 29 -341 25 -142 45 -260 45 -263 0 -3
6 -2 13 2 9 5 9 4 1 -5 -7 -8 -2 -57 18 -169 31 -174 71 -398 95 -539 9 -51
19 -90 24 -88 4 3 5 -3 2 -13 -2 -11 14 -124 37 -253 60 -338 121 -685 131
-749 18 -109 31 -160 39 -160 16 0 18 29 5 96 -7 38 -15 87 -18 109 -17 116
-78 518 -87 565 -8 48 -59 380 -75 495 -3 22 -10 65 -15 95 -8 43 -56 359 -75
490 -2 14 -6 41 -10 60 -3 19 -26 168 -51 330 -50 332 -48 321 -73 344 -18 16
-20 16 -35 -6z"/>
<path d="M21420 7339 c-14 -6 -38 -23 -55 -38 -41 -39 -127 -51 -148 -21 -38
54 -124 56 -186 4 -67 -56 -56 -230 16 -263 49 -23 112 -8 193 44 48 32 60 36
99 31 76 -10 83 -20 124 -167 42 -151 43 -156 21 -187 -14 -20 -23 -22 -110
-22 -136 0 -152 -13 -118 -96 51 -126 88 -195 110 -200 24 -6 148 55 227 112
57 41 56 39 22 214 -3 14 -8 41 -11 60 -3 19 -12 54 -20 78 -31 96 -8 147 67
147 l39 0 0 46 c0 50 -13 68 -72 97 -29 15 -34 23 -38 67 -7 62 -14 73 -56 91
-38 16 -68 17 -104 3z"/>
<path d="M4482 7020 c0 -14 2 -19 5 -12 2 6 2 18 0 25 -3 6 -5 1 -5 -13z"/>
<path d="M17031 6756 c-30 -44 -62 -115 -86 -192 l-12 -42 45 -6 c25 -3 101
-6 170 -6 l124 0 -7 48 c-4 26 -9 56 -11 67 -2 11 -6 43 -10 71 l-6 52 -50 5
c-27 4 -64 15 -82 27 -19 11 -36 20 -39 20 -3 0 -20 -20 -36 -44z"/>
<path d="M4662 6700 c0 -14 2 -19 5 -12 2 6 2 18 0 25 -3 6 -5 1 -5 -13z"/>
<path d="M4662 6650 c0 -14 2 -19 5 -12 2 6 2 18 0 25 -3 6 -5 1 -5 -13z"/>
<path d="M4505 6570 c10 -11 20 -20 23 -20 3 0 -3 9 -13 20 -10 11 -20 20 -23
20 -3 0 3 -9 13 -20z"/>
<path d="M19465 6278 c-28 -15 -61 -21 -115 -23 -165 -5 -284 -118 -285 -270
0 -73 27 -118 89 -146 64 -29 74 -26 78 23 3 36 9 47 46 75 77 59 166 40 250
-51 23 -25 44 -46 46 -46 2 0 3 8 3 18 0 42 4 52 27 67 40 27 69 7 96 -67 14
-34 25 -79 25 -98 1 -22 31 -93 83 -195 75 -149 85 -163 130 -192 71 -47 258
-210 342 -300 40 -43 108 -121 150 -174 l76 -96 38 14 c99 34 136 78 136 163
0 55 -15 94 -49 124 -29 26 -27 34 12 44 60 17 113 58 137 107 32 67 26 164
-16 231 -46 75 -117 107 -245 112 -55 3 -99 7 -99 9 0 3 11 18 25 35 41 49 35
56 -42 45 -68 -9 -327 -6 -337 4 -9 9 13 75 34 102 12 15 57 40 112 62 51 20
95 39 98 42 3 3 -25 2 -62 -2 l-68 -7 0 29 c0 50 -50 135 -124 209 -55 55 -90
80 -156 112 -105 50 -163 62 -293 62 -84 -1 -109 -5 -142 -22z"/>
<path d="M21967 5944 c-3 -4 2 -23 12 -43 15 -28 17 -46 11 -76 -4 -22 -29
-137 -54 -255 -26 -118 -48 -224 -51 -235 -9 -44 -65 -311 -70 -332 -8 -35 83
-64 218 -71 59 -2 107 -3 107 -1 0 2 11 54 24 114 13 61 42 198 65 305 23 107
44 202 46 210 21 87 75 357 75 373 0 51 -19 -8 -49 -148 -17 -82 -51 -244 -76
-360 -25 -115 -57 -266 -72 -335 -14 -69 -31 -131 -37 -139 -21 -27 -260 13
-273 46 -4 11 23 160 52 283 2 8 22 103 45 210 23 107 43 204 46 215 2 11 6
31 9 45 8 41 13 64 20 91 4 18 0 40 -14 68 -23 43 -24 45 -34 35z"/>
<path d="M21434 5823 c4 -17 43 -192 52 -240 16 -84 31 -134 39 -131 6 2 10 5
9 8 -17 81 -77 359 -80 368 -2 6 -8 12 -14 12 -6 0 -9 -8 -6 -17z"/>
<path d="M18081 5665 c1 -60 4 -121 9 -135 7 -24 8 -23 28 20 27 56 28 110 2
158 -39 74 -40 73 -39 -43z"/>
<path d="M18195 5205 c-27 -7 -65 -14 -82 -14 l-33 -1 0 -55 0 -55 -119 0
c-112 0 -120 -1 -145 -25 -14 -13 -26 -35 -26 -48 0 -48 349 -918 383 -954
l20 -23 958 0 c937 0 959 0 969 19 13 26 13 33 -4 57 -14 18 -33 19 -365 24
l-351 5 -133 280 c-73 154 -162 343 -197 420 -116 250 -103 244 -519 245
l-313 0 7 70 c4 39 5 69 4 69 -2 -1 -26 -7 -54 -14z m294 -530 c58 -29 91
-152 55 -203 -32 -46 -106 -13 -133 61 -18 47 -14 114 9 137 24 24 32 25 69 5z"/>
<path d="M7137 5194 c-2 -2 -399 -21 -883 -43 -483 -22 -955 -45 -1049 -51
-93 -6 -365 -19 -602 -30 -238 -11 -454 -25 -480 -30 -282 -64 -494 -300 -523
-583 -7 -71 2 -215 14 -235 3 -5 27 -107 55 -228 28 -120 73 -316 101 -434 28
-118 68 -294 91 -390 46 -204 59 -242 110 -331 107 -187 308 -313 519 -327
l85 -6 43 -85 c185 -368 554 -662 981 -782 202 -57 461 -86 595 -69 45 6 86
10 91 9 27 -7 252 37 365 72 125 38 363 146 425 193 19 14 17 15 -26 16 -36 0
-65 -10 -130 -44 -168 -89 -365 -152 -569 -182 -159 -23 -442 -15 -590 15
-323 68 -603 214 -821 431 -58 58 -128 136 -156 173 -396 539 -345 1281 123
1777 31 32 61 77 73 108 l21 54 -29 -21 c-42 -30 -154 -153 -223 -246 -68 -91
-134 -207 -178 -316 -113 -273 -140 -609 -69 -873 24 -91 24 -86 -13 -86 -90
1 -251 83 -329 168 -84 92 -129 212 -193 517 -5 25 -61 261 -87 370 -16 66
-45 190 -64 275 -20 85 -38 162 -40 170 -2 8 -11 47 -20 85 -34 140 -18 281
45 405 29 56 117 149 184 192 117 76 118 76 836 108 355 16 686 32 735 35 50
4 453 23 897 44 739 34 809 39 828 56 24 22 28 86 6 104 -13 11 -141 23 -149
15z"/>
<path d="M15280 4832 c0 -36 131 -272 164 -294 41 -28 43 16 3 76 -20 29 -56
95 -81 145 -35 69 -51 91 -66 91 -13 0 -20 -7 -20 -18z"/>
<path d="M22405 4554 c-203 -36 -373 -68 -378 -73 -4 -4 -21 -68 -36 -142
l-27 -134 -587 -3 c-380 -1 -587 -6 -587 -12 0 -6 12 -10 28 -10 15 0 275 0
577 0 303 0 556 -4 563 -8 9 -6 12 -26 10 -58 l-3 -49 -580 -3 c-366 -1 -583
-6 -589 -12 -7 -7 209 -10 637 -10 667 0 690 -1 702 -40 3 -9 -5 -50 -18 -91
-17 -55 -29 -77 -47 -86 -17 -8 -74 -13 -167 -13 l-142 0 -145 -443 -145 -443
78 -200 78 -199 78 160 c42 88 121 252 175 365 54 113 120 250 147 305 27 55
107 220 178 367 71 147 132 264 136 260 7 -8 33 -256 65 -607 32 -370 43 -849
24 -1135 -4 -74 -7 -136 -6 -138 10 -10 233 -18 242 -9 3 2 18 80 34 173 16
93 31 183 34 199 17 87 37 233 92 665 54 433 67 1024 29 1319 -20 151 -27 171
-57 170 -13 0 -189 -30 -393 -65z"/>
<path d="M15204 4204 c-158 -196 -256 -325 -251 -330 6 -6 108 23 165 47 38
17 42 21 32 39 -22 41 29 80 105 80 28 0 34 5 50 40 21 46 17 148 -7 194 l-15
29 -79 -99z"/>
<path d="M15773 3798 c113 -290 225 -574 241 -611 l21 -48 59 153 c33 84 92
235 132 336 l72 182 -265 0 c-208 0 -264 -3 -260 -12z"/>
<path d="M16232 3422 c-84 -213 -152 -391 -152 -396 0 -9 247 -642 257 -659 2
-4 13 -2 24 3 16 9 31 -2 106 -81 49 -50 99 -95 112 -100 19 -8 35 -3 78 23
30 18 58 40 63 48 5 10 -11 47 -51 114 -32 54 -56 102 -54 106 3 5 31 23 63
40 168 95 372 277 446 398 64 106 86 171 111 332 4 26 13 41 34 53 28 16 30
22 35 100 3 45 8 155 10 245 l4 162 -324 0 c-257 0 -324 -3 -318 -12 4 -7 20
-31 34 -53 45 -65 112 -206 106 -221 -12 -32 -34 -9 -83 89 -29 56 -69 123
-88 150 l-35 47 -113 0 -112 0 -153 -388z"/>
<path d="M17680 3786 c0 -12 -3 -52 -6 -87 l-6 -64 31 33 c24 25 31 41 31 71
0 52 -8 71 -31 71 -13 0 -19 -7 -19 -24z"/>
<path d="M19000 3806 c0 -2 68 -62 152 -132 292 -249 373 -319 384 -333 10
-12 80 -13 515 -4 473 10 508 12 569 32 35 12 75 32 89 44 70 65 67 187 -10
340 l-29 57 -835 0 c-459 0 -835 -2 -835 -4z"/>
<path d="M5944 3218 c-34 -16 -43 -44 -60 -178 -27 -226 -28 -239 -13 -266 19
-37 35 -43 234 -90 169 -40 181 -42 211 -28 18 9 36 23 39 32 34 83 115 338
115 361 0 46 -36 76 -110 94 -204 51 -363 87 -378 86 -9 0 -27 -5 -38 -11z
m434 -155 c12 -13 22 -32 22 -41 0 -34 -90 -287 -107 -299 -25 -19 -60 -16
-179 13 -59 14 -113 23 -121 20 -8 -3 -12 -2 -9 3 3 5 -3 11 -13 14 -10 2 -26
16 -36 30 -14 23 -15 37 -5 129 19 179 27 208 61 222 26 11 51 8 197 -27 135
-31 171 -44 190 -64z"/>
<path d="M14275 3140 c-3 -19 -32 -204 -64 -410 -33 -206 -61 -391 -63 -410
-3 -35 -3 -35 89 -81 159 -80 322 -121 552 -139 126 -10 301 -5 301 9 0 3 -17
114 -39 246 -21 132 -58 366 -82 520 -23 154 -45 283 -48 287 -3 3 -149 8
-323 10 l-317 3 -6 -35z"/>
<path d="M16017 2879 c-125 -303 -259 -661 -250 -670 5 -5 38 -11 72 -12 48
-1 66 3 75 15 6 9 32 21 56 28 73 18 264 79 278 89 11 6 -10 69 -98 292 -61
156 -113 286 -115 288 -2 2 -10 -12 -18 -30z"/>
<path d="M21346 2546 c-45 -138 -76 -248 -71 -255 11 -19 146 -81 175 -81 23
0 31 12 76 109 l51 109 -70 181 c-39 100 -74 181 -77 181 -3 0 -41 -110 -84
-244z"/>
<path d="M19485 2438 c-2 -7 -9 -44 -16 -83 -16 -92 -54 -227 -79 -275 -25
-49 -74 -66 -152 -51 -56 10 -88 -1 -148 -48 -34 -27 -20 -37 65 -51 71 -12
141 -8 227 11 l48 11 59 121 c71 145 101 232 108 308 5 53 4 56 -18 62 -40 11
-89 8 -94 -5z"/>
<path d="M17120 2339 c-85 -6 -121 -22 -200 -87 -87 -73 -109 -95 -135 -133
-14 -21 -43 -46 -70 -59 -35 -17 -45 -26 -39 -39 4 -9 9 -29 12 -46 2 -16 14
-38 26 -47 23 -20 76 -24 92 -8 6 6 113 15 255 21 298 12 295 11 292 114 -1
37 -4 82 -7 101 -6 32 -8 32 -37 22 -35 -12 -115 -6 -132 11 -8 8 4 24 44 61
45 42 52 53 43 67 -15 23 -53 29 -144 22z"/>
<path d="M17930 2186 c0 -18 -22 -26 -75 -26 -33 0 -44 4 -47 18 -6 25 -58
-80 -74 -148 -12 -48 -11 -58 3 -79 15 -23 18 -24 104 -18 80 5 107 -1 79 -18
-5 -3 -10 -11 -10 -17 0 -24 559 16 662 48 33 10 36 76 6 117 -13 17 -17 17
-98 -6 -96 -28 -221 -47 -325 -50 -59 -2 -70 1 -69 14 1 13 -6 12 -42 -8 l-43
-24 -11 43 c-17 64 -51 168 -56 168 -2 0 -4 -6 -4 -14z"/>
<path d="M15948 2143 c-50 -3 -68 -8 -68 -18 0 -19 -77 -29 -124 -17 -34 10
-38 9 -45 -11 -5 -12 -16 -38 -24 -59 -14 -34 -14 -38 4 -57 19 -20 28 -21
334 -21 l315 0 0 23 c0 32 -83 111 -145 138 -52 23 -125 30 -247 22z"/>
<path d="M21157 2116 c-48 -12 -91 -26 -96 -32 -4 -5 -25 -52 -45 -104 -21
-52 -43 -101 -49 -109 -10 -12 14 -13 173 -8 268 10 285 17 275 124 -10 91
-14 108 -28 94 -14 -14 -72 -14 -97 -1 -11 6 -25 21 -32 34 l-13 24 -88 -22z"/>
<path d="M20884 1997 c-103 -71 -106 -73 -102 -98 3 -26 30 -36 96 -38 39 -1
41 0 30 18 -9 15 -6 31 16 86 15 37 26 69 24 70 -2 2 -31 -15 -64 -38z"/>
<path d="M22389 1871 c-26 -36 -55 -85 -63 -109 -15 -42 -15 -44 9 -68 23 -23
29 -24 163 -24 125 0 140 2 160 20 12 12 22 26 22 33 0 60 -74 222 -90 197 -6
-10 -23 -9 -80 2 l-72 15 -49 -66z"/>
</g>
</svg>
