<?xml version="1.0" standalone="no"?>
<!DOCTYPE svg PUBLIC "-//W3C//DTD SVG 20010904//EN"
 "http://www.w3.org/TR/2001/REC-SVG-20010904/DTD/svg10.dtd">
<svg version="1.0" xmlns="http://www.w3.org/2000/svg"
 width="1838.000000pt" height="1225.000000pt" viewBox="0 0 1838.000000 1225.000000"
 preserveAspectRatio="xMidYMid meet">

<g transform="translate(0.000000,1225.000000) scale(0.100000,-0.100000)"
fill="#000000" stroke="none">
<path d="M7872 8930 c-313 -44 -700 -263 -911 -515 -81 -98 -133 -181 -177
-284 -32 -73 -36 -78 -126 -144 -315 -228 -515 -505 -594 -822 -31 -123 -43
-341 -25 -464 l12 -81 -121 -117 c-67 -64 -154 -160 -194 -213 -87 -116 -175
-267 -183 -315 -3 -19 -9 -32 -13 -30 -11 7 -63 -132 -94 -248 -33 -122 -53
-234 -61 -337 -3 -47 -8 -105 -11 -129 l-6 -44 41 7 c57 9 126 33 194 67 32
16 59 29 62 29 5 0 -165 -361 -178 -377 -7 -10 -117 -13 -486 -13 l-478 0 -21
-23 c-24 -25 -28 -57 -12 -88 11 -19 40 -19 1650 -19 1620 0 1640 0 1660 -20
36 -36 34 -61 -11 -171 -23 -57 -49 -112 -57 -121 -13 -15 -9 -23 37 -75 67
-75 94 -133 99 -211 4 -52 0 -71 -21 -115 -33 -66 -82 -116 -99 -99 -8 8 -2
21 26 53 21 23 44 56 52 75 34 82 2 185 -87 279 l-52 55 -234 -2 -234 -3 -33
-75 c-149 -336 -138 -306 -121 -341 22 -42 30 -125 16 -175 -15 -57 -70 -116
-145 -155 l-64 -33 -102 -233 -102 -232 16 -42 c52 -130 89 -197 104 -192 12
5 14 1 8 -21 -6 -25 52 -161 449 -1051 27 -59 81 -183 156 -354 l54 -124 105
6 c264 14 445 89 605 251 76 76 98 106 137 186 26 52 54 120 63 151 l15 55 83
16 c169 33 329 118 401 215 l29 39 72 -72 c55 -55 92 -82 156 -113 77 -37 225
-81 275 -81 16 0 23 -10 33 -52 7 -29 33 -94 57 -143 105 -215 280 -355 531
-422 91 -25 112 -27 303 -27 159 1 237 6 350 23 373 56 693 165 907 307 95 63
208 172 238 229 l20 37 441 -7 c493 -8 483 -9 556 62 62 60 64 76 53 346 l-7
197 -27 0 c-24 -1 -24 -2 -8 -14 19 -15 23 -36 6 -36 -8 0 -9 -55 -4 -193 6
-164 5 -198 -8 -223 -22 -42 -68 -83 -107 -94 -20 -6 -196 -7 -452 -3 -377 6
-418 8 -413 22 6 14 19 74 31 138 2 13 34 41 86 76 46 30 112 83 147 118 62
62 161 184 161 200 0 4 -82 5 -182 2 -120 -4 -197 -1 -224 6 -60 16 -130 82
-151 142 -17 47 -19 49 -56 49 -21 0 -54 7 -75 15 -40 16 -155 132 -146 147 3
5 7 35 8 67 4 103 70 184 174 211 142 37 286 -92 269 -241 -7 -59 -27 -98 -68
-135 -17 -16 -40 -37 -50 -46 -11 -10 -23 -18 -29 -18 -35 0 18 -99 73 -137
40 -28 42 -28 226 -31 167 -3 184 -2 166 12 -19 13 -19 15 -2 21 24 10 50 -2
43 -20 -3 -9 0 -15 8 -15 8 0 16 7 20 15 3 8 11 14 18 13 19 -4 112 188 154
316 79 243 144 600 144 793 0 34 4 64 8 67 4 3 93 12 197 21 175 15 191 15
232 0 58 -22 93 -73 93 -135 0 -25 5 -63 11 -85 15 -53 82 -120 136 -134 28
-8 199 -10 544 -9 440 3 504 5 504 18 0 13 -68 16 -520 23 -464 7 -522 9 -549
25 -49 29 -69 66 -77 141 -14 134 -77 202 -193 209 -33 2 -131 -3 -216 -11
-85 -8 -157 -13 -159 -11 -2 2 -8 68 -12 148 -5 84 -19 193 -34 262 -13 65
-23 119 -21 122 2 2 83 7 179 12 147 7 181 12 216 29 47 25 87 79 97 134 6 36
5 39 -17 35 -17 -2 -25 -11 -29 -33 -4 -17 -14 -42 -24 -57 -30 -46 -71 -58
-223 -63 -76 -3 -156 -8 -179 -10 l-40 -4 -38 83 c-27 60 -44 86 -59 90 -28 7
-557 8 -557 0 0 -3 5 -14 11 -25 19 -37 27 -122 17 -179 -26 -142 -137 -250
-274 -266 -49 -6 -49 -7 -89 -77 -41 -72 -156 -227 -193 -260 -17 -16 -19 -23
-10 -48 18 -52 6 -151 -25 -197 -62 -94 -188 -125 -292 -71 -65 33 -107 98
-113 174 -4 50 -7 55 -29 55 -46 0 -99 76 -113 165 -10 60 -4 95 16 95 10 0
14 -14 14 -47 0 -73 17 -119 61 -166 l41 -42 20 43 c44 92 112 136 208 136 69
0 114 -16 161 -61 l26 -24 52 58 c48 53 105 134 160 225 l22 36 -33 7 c-91 20
-189 101 -230 190 -32 71 -32 200 0 266 34 68 83 121 143 154 50 28 62 30 154
30 105 0 157 -16 211 -66 17 -16 38 -20 110 -22 71 -3 102 -9 152 -30 60 -27
68 -27 219 -25 l156 3 -27 32 -26 31 16 94 c9 53 18 182 21 301 l6 207 96 0
c153 0 188 -32 203 -183 5 -53 17 -109 28 -133 32 -65 101 -104 186 -104 41 0
42 -1 48 -37 3 -21 8 -77 12 -125 6 -84 7 -88 30 -88 20 0 23 4 19 23 -3 12
-6 69 -7 127 l-3 105 133 3 c130 3 132 3 132 25 l0 23 -138 -4 -139 -4 -7 71
c-3 40 -9 125 -13 190 l-6 119 41 43 41 44 983 0 c867 0 983 2 983 15 0 23
-154 28 -1100 30 -847 3 -851 2 -892 -19 -23 -11 -50 -33 -61 -48 -38 -53 -42
-93 -27 -271 7 -92 12 -169 10 -171 -2 -2 -27 -3 -56 -3 -94 0 -143 57 -153
184 -9 100 -32 156 -77 190 -48 36 -72 41 -180 39 l-96 -2 -7 68 c-14 139 -69
348 -131 501 -14 35 -20 40 -32 31 -24 -21 -41 6 -19 30 18 19 17 22 -18 86
-20 36 -36 68 -36 70 0 3 38 5 84 5 75 0 85 2 100 23 15 21 16 22 30 3 15 -19
24 -19 543 4 291 12 545 26 565 31 46 12 91 48 112 92 9 20 19 82 24 146 8 97
12 115 33 137 50 54 50 54 447 54 308 0 371 2 375 14 3 8 3 17 0 20 -11 11
-750 7 -780 -5 -34 -12 -80 -55 -98 -89 -7 -14 -17 -74 -21 -132 -7 -119 -23
-156 -74 -183 -33 -17 -76 -20 -890 -56 l-475 -20 -20 27 c-109 149 -244 298
-351 385 -30 24 -32 29 -24 70 4 24 10 70 14 102 l6 57 -65 0 -65 0 -16 -40
c-29 -72 -126 -140 -200 -140 -49 0 -121 31 -156 67 -150 154 -32 404 179 380
97 -11 193 -110 193 -199 l0 -38 65 0 65 0 0 43 c0 125 -38 304 -93 443 l-34
84 618 0 c612 0 619 0 619 20 0 20 -7 20 -628 20 l-629 0 -48 77 c-106 167
-254 319 -442 452 -81 58 -88 65 -117 134 -89 205 -222 365 -426 517 l-85 62
-9 -33 c-4 -19 -9 -39 -11 -45 -2 -5 -56 -24 -121 -41 -66 -18 -127 -35 -136
-38 -13 -5 -31 15 -82 94 l-66 101 -62 0 c-35 0 -103 9 -153 19 -104 22 -94
25 -198 -68 l-69 -62 -31 19 c-18 11 -72 43 -120 72 l-89 52 -41 -39 c-27 -25
-61 -45 -97 -56 -115 -35 -221 -127 -286 -250 -21 -39 -39 -66 -42 -59 -2 8
-15 4 -40 -13 -33 -22 -38 -32 -49 -91 l-12 -66 30 -38 30 -38 -30 -49 -31
-50 -47 8 c-42 8 -49 7 -72 -15 -14 -13 -38 -31 -53 -41 -22 -13 -28 -25 -30
-63 l-3 -46 -50 -13 c-69 -17 -67 -18 -94 26 -23 37 -27 39 -90 45 -56 5 -68
3 -85 -13 -18 -19 -18 -20 23 -32 23 -7 40 -17 38 -23 -7 -19 -53 -9 -123 26
-56 28 -73 42 -105 91 -20 31 -42 79 -49 106 -11 47 -14 50 -51 56 -36 6 -40
10 -54 58 -8 28 -15 54 -15 57 0 4 18 19 40 34 31 20 40 33 40 54 0 15 4 42
10 61 8 30 6 38 -20 70 -17 19 -30 39 -30 43 0 4 12 28 28 53 l27 46 46 -6
c42 -6 52 -3 103 31 54 37 56 40 56 81 0 47 9 54 83 68 33 7 37 4 63 -34 26
-39 29 -41 78 -41 l51 1 -66 62 c-72 67 -163 118 -257 142 -72 19 -228 27
-310 15z m288 -45 c-33 -19 -50 -18 -26 0 11 8 27 15 35 15 10 -1 7 -6 -9 -15z
m-129 -76 c-13 -11 -26 -17 -29 -14 -7 6 29 34 43 34 6 0 -1 -9 -14 -20z
m-100 -97 c-11 -21 -41 -48 -41 -38 0 11 34 55 43 56 4 0 3 -8 -2 -18z m-86
-141 c-8 -17 -18 -31 -21 -31 -7 0 6 42 19 58 17 22 19 5 2 -27z m-41 -138
c-7 -31 -12 -38 -18 -32 -7 7 6 59 15 59 5 0 6 -12 3 -27z m1226 -23 c0 -16
-2 -30 -4 -30 -2 0 -6 14 -8 30 -3 17 -1 30 4 30 4 0 8 -13 8 -30z m400 20 c0
-5 -12 -45 -27 -87 -37 -110 -38 -226 -2 -304 33 -70 85 -121 163 -159 155
-76 308 -54 393 58 62 82 66 166 11 235 -16 21 -28 41 -25 43 3 3 22 2 42 -2
21 -4 32 -10 25 -14 -8 -5 -6 -16 8 -39 l19 -32 36 40 c19 21 51 44 70 50 40
14 187 20 187 9 0 -5 18 -25 41 -45 56 -51 79 -100 79 -170 -1 -159 -135 -256
-294 -212 -44 12 -122 85 -132 123 -8 34 -16 33 -37 -4 -18 -30 -79 -76 -131
-98 -121 -53 -328 5 -432 121 -88 98 -106 250 -50 417 14 41 26 76 26 78 0 7
30 0 30 -8z m1320 -65 c-14 -8 -32 -14 -40 -14 -9 0 -4 6 10 14 14 8 32 14 40
14 9 0 4 -6 -10 -14z m-2951 -102 c1 -7 -3 -13 -9 -13 -5 0 -10 17 -9 38 1 33
2 34 9 12 4 -14 8 -31 9 -37z m2826 49 c-20 -17 -65 -32 -65 -21 0 5 10 14 23
19 28 11 54 13 42 2z m-1586 -34 c-1 -7 -5 -24 -9 -38 -7 -22 -8 -21 -9 13 -1
20 4 37 9 37 6 0 10 -6 9 -12z m1436 -17 c-16 -15 -65 -25 -65 -13 0 6 10 13
23 15 41 8 51 7 42 -2z m-760 -11 c3 -5 -3 -10 -14 -10 -11 0 -23 5 -26 10 -3
6 3 10 14 10 11 0 23 -4 26 -10z m151 -31 c3 -5 -3 -9 -13 -9 -29 0 -63 12
-58 19 6 10 64 1 71 -10z m-2041 -91 c4 -17 3 -28 -3 -28 -10 0 -22 32 -22 60
0 22 18 -1 25 -32z m1175 -23 c-6 -15 -13 -26 -16 -23 -2 3 0 18 6 33 6 15 13
26 16 23 2 -3 0 -18 -6 -33z m-1120 -108 c0 -5 -4 -5 -10 -2 -5 3 -10 14 -10
23 0 15 2 15 10 2 5 -8 10 -19 10 -23z m1054 -22 c-9 -14 -20 -25 -25 -25 -5
0 -2 11 7 25 9 14 20 25 25 25 5 0 2 -11 -7 -25z m-104 -120 c-13 -14 -26 -23
-28 -20 -7 7 29 45 41 45 6 0 0 -11 -13 -25z m-1860 5 c0 -6 -7 -24 -15 -40
-15 -28 -14 -30 5 -30 11 0 20 -7 20 -15 0 -9 -9 -15 -25 -15 -20 0 -25 -5
-25 -25 0 -45 27 -93 67 -119 51 -34 135 -52 333 -71 333 -32 439 -65 543
-169 66 -65 107 -177 107 -288 0 -139 -85 -222 -240 -235 -121 -10 -265 42
-305 109 -16 27 -13 48 6 48 5 0 14 -11 19 -24 27 -71 204 -124 322 -96 143
35 196 137 154 297 -33 122 -90 193 -200 244 -90 42 -159 56 -376 79 -107 11
-213 23 -235 26 -136 22 -225 98 -225 195 0 22 -5 29 -20 29 -11 0 -20 7 -20
15 0 9 9 15 23 15 18 0 28 10 42 40 16 36 45 55 45 30z m3886 -57 c-17 -123
-103 -175 -318 -192 -135 -10 -288 -3 -288 14 0 10 46 14 193 17 161 4 202 8
252 26 77 27 120 71 129 135 5 33 12 47 23 47 13 0 15 -8 9 -47z m-4026 -28
c0 -16 -35 -21 -44 -6 -8 12 4 21 26 21 10 0 18 -7 18 -15z m1900 7 c0 -8 -43
-32 -55 -32 -14 0 -2 18 18 28 28 13 37 14 37 4z m-1970 -12 c0 -5 -7 -10 -15
-10 -8 0 -18 0 -22 -1 -4 0 -9 4 -11 10 -2 6 8 11 22 11 14 0 26 -4 26 -10z
m295 1 c3 -5 1 -12 -4 -15 -12 -8 -41 3 -41 15 0 12 37 12 45 0z m72 -15 c-2
-6 -13 -9 -23 -8 -24 5 -27 8 -20 20 8 14 48 2 43 -12z m-447 4 c0 -5 -9 -10
-20 -10 -11 0 -20 5 -20 10 0 6 9 10 20 10 11 0 20 -4 20 -10z m-70 -9 c0 -12
-29 -23 -41 -15 -5 3 -7 10 -4 15 8 12 45 12 45 0z m590 -7 c0 -11 -5 -14 -16
-10 -9 3 -20 6 -25 6 -5 0 -9 5 -9 10 0 6 11 10 25 10 16 0 25 -6 25 -16z
m-665 -15 c-4 -5 -16 -9 -28 -9 -21 1 -21 1 -3 15 20 15 41 11 31 -6z m740 6
c0 -5 -10 -11 -22 -13 -16 -2 -23 2 -23 13 0 11 7 15 23 13 12 -2 22 -7 22
-13z m-810 -26 c-8 -12 -45 -12 -45 0 0 10 30 20 43 14 4 -3 5 -9 2 -14z m878
6 c-4 -15 -36 -12 -41 3 -3 9 3 13 19 10 13 -1 23 -7 22 -13z m942 -5 c-3 -5
-14 -6 -25 -3 -11 3 -18 9 -15 13 3 5 14 6 25 3 11 -3 18 -9 15 -13z m300 11
c-16 -15 -65 -25 -65 -13 0 11 21 19 55 21 12 1 15 -3 10 -8z m-1167 -29 c3
-9 -3 -13 -19 -10 -12 1 -24 9 -27 16 -3 9 3 13 19 10 12 -1 24 -9 27 -16z
m1022 8 c0 -5 -16 -10 -35 -10 -19 0 -35 5 -35 10 0 6 16 10 35 10 19 0 35 -4
35 -10z m-2050 -9 c0 -12 -28 -22 -34 -12 -3 5 -3 11 1 15 9 9 33 7 33 -3z
m1098 -19 c3 -9 -3 -13 -19 -10 -12 1 -24 9 -27 16 -3 9 3 13 19 10 12 -1 24
-9 27 -16z m72 -32 c0 -6 -6 -10 -12 -10 -22 0 -41 17 -34 29 8 13 46 -3 46
-19z m69 -16 c10 -9 -17 -24 -32 -18 -27 10 -22 37 6 28 12 -3 24 -8 26 -10z
m2581 -8 c0 -7 -20 -19 -47 -27 -116 -32 -164 -145 -126 -296 10 -41 -25 -27
-36 15 -26 93 -8 185 50 247 52 56 159 97 159 61z m-2525 -19 c11 -9 14 -16 7
-21 -15 -9 -42 4 -42 20 0 18 11 18 35 1z m59 -23 c20 -8 21 -34 2 -34 -17 0
-38 24 -29 33 8 8 8 8 27 1z m81 -44 c3 -5 3 -15 0 -20 -7 -12 -45 5 -45 20 0
13 37 13 45 0z m49 -26 c9 -3 16 -13 16 -21 0 -20 -34 -12 -38 10 -4 19 -1 20
22 11z m75 -48 c7 -9 8 -17 2 -20 -14 -9 -41 4 -41 20 0 18 24 18 39 0z m55
-32 c15 -6 23 -34 10 -34 -13 0 -44 21 -44 30 0 11 11 13 34 4z m73 -49 c3 -9
3 -18 1 -21 -9 -9 -38 8 -38 22 0 19 29 18 37 -1z m47 -31 c9 -3 16 -13 16
-21 0 -10 -6 -13 -16 -9 -9 3 -18 6 -20 6 -2 0 -4 7 -4 15 0 17 2 18 24 9z
m60 -40 c9 -3 16 -13 16 -21 0 -20 -34 -12 -38 10 -4 19 -1 20 22 11z m1301
-23 c76 -35 185 -172 185 -233 0 -22 4 -22 64 -2 95 32 228 -4 291 -78 97
-114 93 -275 -10 -381 -82 -84 -211 -106 -318 -54 -53 27 -82 53 -118 106
l-15 24 -46 -35 c-46 -35 -137 -66 -158 -53 -19 12 -10 23 27 30 46 8 100 35
135 68 24 23 26 30 21 79 -8 77 17 153 67 210 l40 46 -14 46 c-27 91 -130 198
-202 212 -45 8 -97 -11 -141 -52 -25 -24 -40 -31 -47 -24 -12 12 43 72 88 94
42 21 102 20 151 -3z m-1228 -36 c3 -9 3 -19 -1 -22 -7 -7 -36 16 -36 28 0 15
30 10 37 -6z m53 -40 c7 -9 10 -18 7 -21 -10 -11 -37 5 -37 21 0 19 14 19 30
0z m68 -58 c2 -10 -3 -17 -11 -17 -18 0 -39 24 -30 34 12 12 38 2 41 -17z
m2057 12 c21 -6 54 -26 72 -44 28 -28 33 -40 33 -79 0 -34 -4 -46 -15 -46 -11
0 -15 11 -15 36 0 65 -32 95 -118 108 -88 13 -172 -54 -214 -172 -18 -53 -54
-74 -42 -25 13 53 54 130 90 167 60 62 124 78 209 55z m-1995 -61 c0 -16 -23
-19 -37 -5 -22 21 -8 40 17 24 11 -6 20 -15 20 -19z m-1790 -18 c0 -5 -9 -10
-21 -10 -11 0 -17 5 -14 10 3 6 13 10 21 10 8 0 14 -4 14 -10z m75 0 c3 -5 -3
-10 -14 -10 -12 0 -21 5 -21 10 0 6 6 10 14 10 8 0 18 -4 21 -10z m-225 -10
c0 -5 -7 -10 -15 -10 -8 0 -15 5 -15 10 0 6 7 10 15 10 8 0 15 -4 15 -10z m73
3 c-7 -2 -19 -2 -25 0 -7 3 -2 5 12 5 14 0 19 -2 13 -5z m227 -3 c0 -5 -6 -10
-14 -10 -8 0 -18 5 -21 10 -3 6 3 10 14 10 12 0 21 -4 21 -10z m1684 -13 c6
-9 7 -19 3 -23 -9 -9 -37 15 -37 33 0 18 20 12 34 -10z m-2054 3 c0 -5 -9 -10
-21 -10 -11 0 -17 5 -14 10 3 6 13 10 21 10 8 0 14 -4 14 -10z m442 -2 c-9 -9
-15 -9 -24 0 -9 9 -7 12 12 12 19 0 21 -3 12 -12z m78 -8 c0 -5 -6 -10 -14
-10 -8 0 -18 5 -21 10 -3 6 3 10 14 10 12 0 21 -4 21 -10z m-595 -10 c-3 -5
-13 -10 -21 -10 -8 0 -14 5 -14 10 0 6 9 10 21 10 11 0 17 -4 14 -10z m665 0
c0 -5 -9 -10 -20 -10 -11 0 -20 5 -20 10 0 6 9 10 20 10 11 0 20 -4 20 -10z
m-741 -21 c-7 -4 -17 -5 -22 -2 -5 3 -3 9 4 14 7 4 17 5 22 2 5 -3 3 -9 -4
-14z m811 1 c0 -5 -6 -10 -14 -10 -8 0 -18 5 -21 10 -3 6 3 10 14 10 12 0 21
-4 21 -10z m1450 -5 c19 -23 1 -39 -21 -19 -10 9 -16 21 -13 25 8 13 20 11 34
-6z m-2335 -15 c-3 -5 -11 -10 -16 -10 -6 0 -7 5 -4 10 3 6 11 10 16 10 6 0 7
-4 4 -10z m960 0 c3 -5 -3 -10 -14 -10 -12 0 -21 5 -21 10 0 6 6 10 14 10 8 0
18 -4 21 -10z m64 -19 c9 -6 10 -11 2 -15 -13 -8 -31 1 -31 15 0 11 11 11 29
0z m-1089 -5 c0 -3 -4 -8 -10 -11 -5 -3 -10 -1 -10 4 0 6 5 11 10 11 6 0 10
-2 10 -4z m2444 -2 c16 -6 23 -44 8 -44 -12 0 -32 23 -32 37 0 15 2 15 24 7z
m-1286 -32 c2 -7 -2 -10 -12 -6 -9 3 -16 11 -16 16 0 13 23 5 28 -10z m-1223
-2 c-3 -5 -11 -10 -16 -10 -6 0 -7 5 -4 10 3 6 11 10 16 10 6 0 7 -4 4 -10z
m1290 -21 c12 -19 -5 -23 -22 -6 -16 16 -16 17 -1 17 9 0 20 -5 23 -11z m1285
-4 c19 -23 1 -39 -21 -19 -10 9 -16 21 -13 25 8 13 20 11 34 -6z m-1220 -25
c8 -5 12 -12 9 -15 -8 -8 -39 5 -39 16 0 11 11 11 30 -1z m1274 -33 c6 -9 7
-19 3 -23 -9 -9 -37 15 -37 33 0 18 20 12 34 -10z m-1194 -12 c0 -3 -9 -5 -20
-5 -11 0 -20 7 -20 15 0 13 4 14 20 5 11 -6 20 -13 20 -15z m2645 -8 c-5 -43
16 -140 42 -196 39 -84 139 -177 243 -228 47 -23 110 -47 141 -53 122 -27 249
5 337 84 54 49 67 28 16 -25 -94 -96 -249 -125 -406 -76 -141 44 -259 127
-327 228 -46 69 -68 132 -77 225 -6 60 -5 64 13 64 15 0 20 -6 18 -23z m-2595
-17 c8 -5 11 -12 8 -16 -10 -9 -38 3 -38 16 0 12 10 13 30 0z m1200 -34 c-13
-13 -45 17 -35 34 5 8 12 6 26 -6 13 -12 16 -21 9 -28z m-1135 -7 c12 -19 -5
-23 -22 -6 -16 16 -16 17 -1 17 9 0 20 -5 23 -11z m1184 -18 c7 -5 10 -14 6
-20 -5 -9 -10 -9 -21 0 -26 22 -14 38 15 20z m-1118 -27 c12 -14 11 -16 -5
-13 -11 2 -21 10 -24 17 -5 17 13 15 29 -4z m1176 -29 c3 -9 3 -19 -1 -22 -7
-7 -36 16 -36 28 0 15 30 10 37 -6z m-1116 -11 c12 -14 11 -16 -5 -13 -11 2
-21 10 -24 17 -5 17 13 15 29 -4z m64 -54 c-8 -13 -35 0 -35 16 0 12 4 12 20
4 11 -6 18 -15 15 -20z m1104 16 c9 -10 9 -16 1 -21 -13 -8 -42 14 -34 26 8
13 20 11 33 -5z m-1048 -52 c12 -14 11 -16 -5 -13 -11 2 -21 10 -24 17 -5 17
13 15 29 -4z m1099 1 c7 -9 10 -18 7 -21 -10 -11 -37 5 -37 21 0 19 14 19 30
0z m-1043 -61 c-9 -10 -38 16 -31 28 4 6 13 4 22 -6 9 -8 13 -19 9 -22z m1097
-14 c-14 -14 -39 14 -29 31 5 8 12 6 23 -5 11 -11 13 -19 6 -26z m-1901 -1
c87 -44 128 -103 153 -218 17 -83 17 -91 -1 -91 -15 0 -18 10 -30 83 -22 138
-112 216 -248 217 -87 0 -138 -13 -266 -67 -114 -48 -196 -64 -273 -52 -55 9
-115 43 -124 72 -9 28 4 33 29 10 80 -73 179 -72 370 6 70 28 151 55 180 61
73 13 160 4 210 -21z m857 -14 c7 -9 10 -18 7 -22 -8 -7 -37 15 -37 28 0 14
16 11 30 -6z m1100 -39 c-13 -13 -45 17 -35 34 5 8 12 6 26 -6 13 -12 16 -21
9 -28z m2375 -15 c-17 -56 -154 -157 -263 -195 -35 -13 -41 -13 -46 0 -3 9 2
17 12 21 105 35 209 103 254 168 32 45 57 48 43 6z m-3416 6 c6 -8 8 -17 4
-20 -7 -8 -33 11 -33 24 0 13 16 11 29 -4z m1095 -23 c4 -9 4 -19 1 -23 -8 -7
-38 12 -43 27 -6 19 35 14 42 -4z m-1044 -29 c7 -9 10 -18 7 -22 -8 -7 -37 15
-37 28 0 14 16 11 30 -6z m1098 -29 c3 -13 -1 -17 -14 -14 -11 2 -20 11 -22
22 -3 13 1 17 14 14 11 -2 20 -11 22 -22z m-1040 -29 c2 -12 -1 -15 -12 -11
-19 7 -22 38 -3 32 6 -3 13 -12 15 -21z m1090 -9 c19 -19 14 -30 -10 -26 -13
2 -24 11 -26 21 -4 20 18 23 36 5z m-1038 -33 c7 -9 10 -18 7 -22 -8 -7 -37
15 -37 28 0 14 16 11 30 -6z m1090 -20 c19 -23 1 -39 -21 -19 -10 9 -16 21
-13 25 8 13 20 11 34 -6z m-1033 -51 c-9 -10 -38 16 -31 28 4 6 13 4 22 -6 9
-8 13 -19 9 -22z m1077 10 c16 -6 23 -44 8 -44 -12 0 -32 23 -32 37 0 15 2 15
24 7z m1766 -5 c0 -6 -22 -31 -49 -55 -149 -134 -131 -412 41 -599 131 -144
286 -188 401 -115 53 33 77 80 77 149 0 37 4 51 14 51 37 0 24 -119 -19 -176
-17 -22 -21 -34 -13 -42 17 -17 -2 -34 -33 -30 -17 3 -30 -1 -33 -9 -3 -7 -21
-13 -40 -13 -19 0 -38 -4 -41 -10 -3 -5 -15 -10 -26 -10 -10 0 -19 5 -19 10 0
6 -4 10 -10 10 -5 0 -10 -7 -10 -15 0 -9 -9 -15 -24 -15 -31 0 -42 16 -20 28
14 8 12 10 -12 16 -44 11 -127 62 -182 111 -212 191 -245 545 -65 694 38 32
63 40 63 20z m-497 -23 c102 -31 160 -107 161 -210 1 -174 -169 -278 -325
-198 -151 76 -158 293 -13 383 62 38 110 45 177 25z m-2294 -32 c3 -16 1 -17
-13 -5 -19 16 -21 34 -3 29 6 -3 14 -13 16 -24z m1091 1 c20 -24 -2 -41 -24
-20 -16 16 -14 35 3 35 5 0 14 -7 21 -15z m-1041 -39 c9 -11 9 -16 0 -21 -10
-7 -28 10 -29 28 0 12 17 8 29 -7z m1085 -2 c16 -6 23 -44 8 -44 -12 0 -32 23
-32 37 0 15 2 15 24 7z m-1034 -49 c7 -9 10 -18 7 -21 -10 -11 -37 5 -37 21 0
19 14 19 30 0z m1100 -10 c19 -23 1 -39 -21 -19 -10 9 -16 21 -13 25 8 13 20
11 34 -6z m-1051 -48 c6 -8 8 -17 4 -20 -7 -8 -33 11 -33 24 0 13 16 11 29 -4z
m1111 -2 c7 -9 10 -18 7 -21 -10 -10 -47 7 -47 22 0 19 24 18 40 -1z m-1060
-50 c7 -9 10 -18 7 -21 -10 -11 -37 5 -37 21 0 19 14 19 30 0z m1119 1 c7 -9
8 -17 2 -20 -14 -9 -41 4 -41 20 0 18 24 18 39 0z m51 -41 c19 -23 1 -39 -21
-19 -10 9 -16 21 -13 25 8 13 20 11 34 -6z m-1121 -18 c6 -8 8 -17 4 -20 -7
-8 -33 11 -33 24 0 13 16 11 29 -4z m3651 -21 c0 -20 -26 -40 -35 -26 -10 16
2 40 20 40 8 0 15 -6 15 -14z m-2463 -11 c3 -9 2 -19 -1 -23 -8 -8 -38 10 -44
26 -6 18 38 14 45 -3z m-4183 -21 c3 -8 2 -12 -4 -9 -6 3 -10 10 -10 16 0 14
7 11 14 -7z m3046 -5 c10 -18 9 -20 -7 -17 -10 2 -19 11 -21 21 -5 24 15 21
28 -4z m1184 -6 c4 -4 33 -8 66 -9 109 -5 200 -64 245 -159 14 -30 25 -62 26
-72 0 -10 8 7 18 37 35 109 100 214 120 195 7 -7 -1 -28 -24 -65 -44 -72 -77
-157 -65 -165 15 -9 12 -35 -4 -35 -19 0 -26 -32 -26 -116 0 -158 78 -287 240
-395 14 -9 22 -20 18 -24 -16 -17 -60 9 -132 76 -92 86 -143 178 -154 279 l-7
65 -23 -37 c-34 -54 -97 -105 -155 -124 -133 -44 -287 28 -342 160 -18 42 -20
144 -3 198 14 49 78 123 128 148 21 11 40 26 43 35 7 16 19 19 31 8z m2366 -2
c0 -21 -13 -41 -26 -41 -17 0 -18 22 -2 38 14 14 28 16 28 3z m-3501 -45 c8
-10 9 -16 1 -21 -13 -8 -30 3 -30 21 0 18 14 18 29 0z m3451 -20 c0 -22 -29
-41 -42 -28 -8 8 -8 15 2 27 16 19 40 20 40 1z m-3400 -54 c0 -13 -3 -12 -20
3 -11 10 -17 22 -14 27 8 12 34 -11 34 -30z m3350 4 c0 -22 -29 -41 -42 -28
-8 8 -8 15 2 27 16 19 40 20 40 1z m-3303 -62 c-9 -10 -38 16 -31 28 4 6 13 4
22 -6 9 -8 13 -19 9 -22z m3247 17 c3 -4 -3 -16 -14 -26 -26 -23 -52 -6 -30
20 14 17 36 20 44 6z m-4236 -46 c164 -39 287 -144 370 -315 27 -58 56 -130
63 -160 24 -102 8 -278 -24 -267 -7 2 -11 13 -9 23 2 10 6 55 9 99 7 99 -11
178 -67 291 -99 203 -242 299 -462 311 -73 4 -98 9 -98 19 0 19 135 18 218 -1z
m4178 4 c10 -16 -22 -43 -42 -35 -16 6 -16 8 1 26 20 23 31 25 41 9z m-5093
-31 c42 -56 20 -183 -42 -249 -34 -35 -44 -40 -77 -37 -27 2 -43 11 -58 31
-45 60 -11 210 61 266 38 30 89 25 116 -11z m1946 19 c6 -8 8 -17 4 -20 -7 -8
-33 11 -33 24 0 13 16 11 29 -4z m3091 -41 c0 -17 -34 -31 -50 -21 -16 10 8
35 31 35 11 0 19 -6 19 -14z m-3039 -22 c12 -14 11 -16 -5 -13 -11 2 -21 10
-24 17 -5 17 13 15 29 -4z m1397 4 c19 -19 14 -30 -10 -26 -13 2 -24 11 -26
21 -4 20 18 23 36 5z m1575 -15 c11 -10 -13 -33 -34 -33 -22 0 -24 11 -7 28
13 13 31 16 41 5z m-1512 -14 c20 -10 17 -29 -4 -29 -21 0 -40 17 -33 29 9 14
12 14 37 0z m-1413 -45 c-10 -10 -28 6 -28 24 0 15 1 15 17 -1 9 -9 14 -19 11
-23z m2862 11 c0 -12 -21 -25 -41 -25 -16 0 -10 29 8 39 20 11 33 6 33 -14z
m-1386 9 c17 -7 22 -34 7 -34 -21 0 -41 13 -41 26 0 15 10 17 34 8z m83 -39
c7 -21 2 -25 -25 -18 -12 3 -22 12 -22 19 0 19 39 18 47 -1z m1231 -2 c-4 -23
-48 -31 -48 -10 0 9 6 18 13 20 25 11 38 7 35 -10z m-2741 -39 c-9 -10 -38 16
-31 28 4 6 13 4 22 -6 9 -8 13 -19 9 -22z m1567 30 c19 -7 22 -34 4 -34 -22 0
-41 17 -34 29 8 13 9 13 30 5z m1109 -18 c1 -5 -6 -14 -15 -20 -13 -8 -21 -7
-30 2 -10 10 -10 15 2 22 17 11 40 9 43 -4z m-1022 -21 c0 -14 -31 -19 -43 -7
-6 6 -7 15 -4 21 8 12 48 0 47 -14z m60 -6 c23 -12 16 -29 -11 -29 -21 0 -34
15 -25 30 8 13 12 12 36 -1z m-1672 -22 c6 -8 8 -17 4 -20 -7 -8 -33 11 -33
24 0 13 16 11 29 -4z m1759 -4 c2 -7 -4 -16 -12 -19 -19 -7 -49 14 -40 28 8
13 46 6 52 -9z m72 -18 c0 -9 -9 -15 -25 -15 -16 0 -25 6 -25 15 0 9 9 15 25
15 16 0 25 -6 25 -15z m70 -10 c0 -15 -43 -12 -48 3 -3 10 4 13 22 10 15 -2
26 -7 26 -13z m375 -6 c0 -8 -12 -15 -27 -17 -32 -4 -40 23 -10 31 25 7 37 2
37 -14z m-295 -4 c0 -16 -45 -21 -54 -6 -8 12 4 21 31 21 14 0 23 -6 23 -15z
m70 1 c0 -19 -14 -28 -34 -20 -25 10 -19 34 9 34 15 0 25 -6 25 -14z m75 -6
c0 -18 -33 -26 -47 -12 -6 6 -7 15 -3 22 10 16 50 8 50 -10z m75 6 c0 -16 -27
-29 -41 -20 -19 11 -9 34 16 34 15 0 25 -6 25 -14z m-2152 -25 c3 -8 -1 -12
-9 -9 -7 2 -15 10 -17 17 -3 8 1 12 9 9 7 -2 15 -10 17 -17z m45 -72 c-8 -8
-14 -6 -22 9 -13 25 -2 37 18 17 11 -11 12 -18 4 -26z m47 -34 c7 -9 10 -18 7
-21 -10 -11 -37 5 -37 21 0 19 14 19 30 0z m47 -60 c3 -9 3 -19 -1 -22 -7 -7
-36 16 -36 28 0 15 30 10 37 -6z m47 -61 c4 -9 4 -19 1 -22 -6 -6 -35 18 -35
29 0 16 28 10 34 -7z m1707 -55 c-81 -73 -215 -117 -315 -105 -71 9 -178 45
-170 58 7 10 17 9 124 -17 115 -27 246 8 344 91 29 25 43 31 50 23 8 -8 -2
-22 -33 -50z m-1664 1 c9 -13 9 -21 2 -26 -12 -7 -29 13 -29 34 0 18 14 15 27
-8z m53 -76 c0 -8 -4 -14 -10 -14 -12 0 -31 35 -23 44 9 8 33 -14 33 -30z m40
-39 c16 -19 3 -40 -16 -24 -15 13 -19 39 -5 39 5 0 14 -7 21 -15z m47 -60 c3
-9 3 -19 -1 -22 -8 -9 -37 18 -30 28 8 14 24 11 31 -6z m51 -68 c2 -10 -3 -17
-12 -17 -9 0 -16 2 -16 4 0 2 -3 12 -6 21 -5 13 -2 16 12 13 10 -2 20 -11 22
-21z m41 -51 c8 -10 9 -16 1 -21 -13 -8 -30 3 -30 21 0 18 14 18 29 0z m51
-72 c0 -18 -14 -18 -30 1 -16 19 -3 40 16 24 8 -6 14 -18 14 -25z m40 -39 c16
-19 3 -40 -16 -24 -15 13 -19 39 -5 39 5 0 14 -7 21 -15z m48 -57 c16 -16 15
-28 -2 -28 -17 0 -38 24 -29 33 9 10 17 9 31 -5z m49 -63 c3 -9 3 -19 -1 -22
-7 -7 -36 16 -36 28 0 15 30 10 37 -6z m53 -71 c0 -18 -14 -18 -30 1 -16 19
-3 40 16 24 8 -6 14 -18 14 -25z m179 -40 c72 -18 200 -79 271 -128 24 -17 49
-34 54 -38 8 -5 7 -11 0 -18 -8 -8 -31 1 -83 35 -100 65 -185 102 -275 122
-58 13 -82 14 -95 6 -10 -6 -24 -8 -31 -3 -7 4 -19 6 -27 3 -13 -5 -18 18 -6
30 12 13 126 7 192 -9z m-249 -19 c0 -8 -21 -26 -47 -39 -88 -45 -168 -139
-228 -269 -34 -72 -34 -72 -34 -33 -2 89 134 272 244 329 59 31 65 32 65 12z
m-975 -55 c42 -20 70 -54 59 -71 -4 -7 -17 -1 -33 15 -38 36 -73 46 -159 46
-87 0 -140 -20 -184 -66 -84 -90 -89 -315 -13 -652 32 -145 39 -233 25 -312
-24 -134 -94 -236 -199 -287 -49 -25 -67 -28 -151 -28 -88 0 -101 3 -162 33
-92 45 -196 162 -144 162 7 0 24 -16 37 -35 32 -48 126 -110 190 -125 130 -32
282 28 345 135 68 117 73 236 19 490 -42 197 -57 407 -36 507 24 112 101 189
209 208 64 11 149 3 197 -20z m1134 16 c9 -10 9 -16 1 -21 -12 -7 -40 11 -40
26 0 14 26 10 39 -5z m51 -72 c0 -18 -14 -18 -30 1 -16 19 -3 40 16 24 8 -6
14 -18 14 -25z m44 -47 c6 -9 7 -19 3 -23 -9 -9 -37 15 -37 33 0 18 20 12 34
-10z m54 -61 c3 -13 -1 -17 -14 -14 -11 2 -20 11 -22 22 -3 13 1 17 14 14 11
-2 20 -11 22 -22z m40 -38 c16 -16 15 -38 -2 -38 -13 0 -26 20 -26 41 0 13 14
11 28 -3z m52 -63 c7 -9 10 -18 7 -21 -10 -11 -37 5 -37 21 0 19 14 19 30 0z
m48 -47 c17 -17 15 -38 -3 -38 -16 0 -38 34 -28 44 9 9 18 7 31 -6z m52 -63
c7 -9 10 -18 7 -21 -10 -11 -37 5 -37 21 0 19 14 19 30 0z m-835 -240 c3 -82
4 -147 1 -144 -11 11 -36 160 -36 213 0 29 3 75 7 102 l7 49 7 -35 c4 -19 10
-102 14 -185z m885 190 c19 -23 1 -39 -21 -19 -10 9 -16 21 -13 25 8 13 20 11
34 -6z m58 -69 c3 -13 -1 -17 -14 -14 -11 2 -20 11 -22 22 -3 13 1 17 14 14
11 -2 20 -11 22 -22z m-427 3 c97 -21 168 -112 169 -217 0 -95 -39 -158 -125
-198 -154 -73 -318 32 -316 201 1 103 62 185 158 211 61 16 53 16 114 3z m477
-53 c3 -13 -1 -17 -14 -14 -11 2 -20 11 -22 22 -3 13 1 17 14 14 11 -2 20 -11
22 -22z m52 -45 c7 -14 7 -22 0 -26 -13 -8 -40 13 -40 31 0 21 28 17 40 -5z
m48 -43 c16 -16 15 -38 -2 -38 -18 0 -39 27 -31 40 8 13 18 13 33 -2z m62 -74
c0 -16 -26 -19 -35 -4 -4 6 -4 18 -1 27 5 12 9 13 21 3 8 -7 15 -19 15 -26z
m50 -39 c7 -9 10 -19 6 -22 -8 -9 -38 9 -44 25 -5 17 23 15 38 -3z m58 -58 c2
-10 -3 -17 -11 -17 -18 0 -39 24 -30 34 12 12 38 2 41 -17z m-1078 -188 c94
-93 233 -169 378 -208 25 -7 42 -18 42 -26 0 -19 -4 -19 -71 1 -179 53 -324
144 -427 270 -32 39 -45 64 -49 96 l-5 43 33 -55 c17 -30 62 -85 99 -121z
m1130 146 c7 -9 10 -19 6 -22 -8 -9 -38 9 -44 25 -5 17 23 15 38 -3z m60 -61
c0 -16 -26 -19 -35 -4 -4 6 -4 18 -1 27 5 12 9 13 21 3 8 -7 15 -19 15 -26z
m48 -26 c16 -16 15 -38 -2 -38 -18 0 -39 27 -31 40 8 13 18 13 33 -2z m62 -53
c6 -8 9 -19 5 -25 -9 -14 -45 6 -45 25 0 19 24 19 40 0z m59 -49 c9 -10 9 -16
1 -21 -16 -10 -40 2 -40 20 0 19 24 20 39 1z m56 -42 c11 -11 13 -20 6 -27
-12 -12 -41 8 -41 29 0 19 15 18 35 -2z m65 -49 c10 -12 9 -16 -4 -21 -18 -7
-49 13 -40 27 8 14 30 11 44 -6z m51 -36 c16 -8 18 -13 8 -25 -10 -13 -14 -12
-30 2 -10 9 -16 21 -13 25 7 12 11 11 35 -2z m-818 -32 c86 -36 137 -113 137
-207 0 -127 -93 -220 -220 -220 -88 0 -161 44 -201 122 -21 41 -26 138 -10
181 14 37 69 96 110 117 43 23 137 26 184 7z m883 -11 c14 -11 16 -18 8 -26
-15 -15 -44 -2 -44 21 0 23 9 24 36 5z m60 -40 c14 -11 16 -18 8 -26 -15 -15
-44 -2 -44 21 0 23 9 24 36 5z m74 -61 c0 -8 -6 -15 -14 -15 -18 0 -39 27 -31
40 9 14 45 -6 45 -25z m-3920 -11 c0 -4 -20 -30 -43 -58 -65 -76 -94 -125
-112 -190 -33 -116 3 -225 106 -320 94 -88 159 -100 371 -70 65 9 154 14 208
12 81 -3 105 -8 160 -34 89 -42 170 -114 129 -114 -6 0 -28 14 -49 30 -108 85
-220 105 -430 75 -231 -33 -340 -8 -436 98 -74 82 -99 145 -99 247 1 75 5 93
33 152 34 70 124 178 148 178 8 0 14 -3 14 -6z m3968 -6 c14 -14 16 -38 4 -38
-18 0 -45 28 -38 38 9 15 19 15 34 0z m-774 -33 c15 -24 15 -25 -2 -25 -21 0
-42 18 -42 37 0 22 27 15 44 -12z m842 -9 c15 -12 16 -17 7 -27 -10 -10 -17
-9 -33 6 -32 29 -10 47 26 21z m58 -32 c17 -7 22 -34 7 -34 -21 0 -41 13 -41
26 0 15 10 17 34 8z m-837 -56 c12 -22 17 -56 18 -105 0 -65 -3 -74 -31 -109
-73 -90 -232 -140 -479 -149 -164 -7 -244 -19 -300 -47 -79 -40 -135 -111
-150 -191 -5 -23 -13 -37 -22 -37 -13 0 -14 8 -9 43 16 98 74 169 178 217 66
31 78 33 241 41 260 14 384 40 466 99 81 59 97 117 61 212 -24 63 -23 58 -5
58 8 0 22 -15 32 -32z m516 -74 c114 -29 263 -119 343 -205 80 -87 173 -246
158 -270 -10 -16 -22 0 -66 84 -60 117 -190 246 -308 305 -47 23 -110 48 -140
56 -36 8 -56 19 -58 30 -4 20 -4 20 71 0z m736 -67 c13 -16 5 -27 -20 -27 -21
0 -33 15 -24 30 9 14 31 12 44 -3z m77 -28 c10 -17 -12 -32 -35 -24 -29 9 -27
35 3 35 14 0 28 -5 32 -11z m55 -20 c23 -12 16 -29 -11 -29 -21 0 -34 15 -25
30 8 13 12 12 36 -1z m84 -40 c0 -9 -9 -13 -24 -11 -31 3 -35 7 -28 26 8 19
52 6 52 -15z m65 -9 c21 -13 0 -31 -28 -24 -12 4 -22 13 -22 20 0 16 28 18 50
4z m76 -21 c3 -6 2 -15 -4 -21 -12 -12 -55 8 -47 23 8 12 42 12 51 -2z m-1041
-314 c109 -63 140 -214 67 -320 -35 -52 -118 -95 -183 -95 -66 0 -145 43 -184
100 -27 41 -30 53 -30 126 0 74 2 84 30 120 36 48 56 64 109 87 54 22 136 15
191 -18z"/>
<path d="M8690 8607 c0 -8 9 -22 21 -33 12 -10 27 -31 35 -46 10 -19 22 -28
39 -28 14 0 25 4 25 9 0 9 -105 111 -114 111 -3 0 -6 -6 -6 -13z"/>
<path d="M8091 8052 c6 -17 17 -36 25 -43 26 -22 16 26 -11 51 l-25 24 11 -32z"/>
<path d="M16655 7894 c-247 -6 -569 -15 -715 -19 -146 -4 -480 -12 -743 -19
l-478 -12 -26 -26 -26 -27 10 -758 c6 -417 14 -766 18 -775 6 -15 -2 -17 -77
-20 l-83 -3 -3 -48 c-2 -27 2 -55 9 -63 17 -21 3011 -21 3028 0 7 8 11 36 9
63 l-3 48 -112 3 c-103 2 -112 4 -103 20 16 26 50 1527 36 1572 -7 20 -25 44
-46 58 -31 21 -44 23 -140 20 -58 -1 -307 -7 -555 -14z m-1065 -124 c-36 -4
-213 -11 -395 -14 -181 -4 -345 -12 -363 -17 -17 -6 -37 -19 -42 -29 -6 -11
-11 -119 -12 -247 -1 -192 -2 -212 -8 -123 -4 58 -8 158 -9 222 -2 202 -7 199
302 208 325 9 610 9 527 0z m-800 -740 c0 -33 -4 -60 -10 -60 -6 0 -10 27 -10
60 0 33 4 60 10 60 6 0 10 -27 10 -60z"/>
<path d="M5160 7718 c-30 -16 -53 -38 -70 -68 -25 -42 -29 -45 -71 -47 -24 -1
-56 -5 -72 -9 -21 -5 -37 0 -68 22 -83 57 -211 38 -260 -39 -20 -32 -21 -63
-3 -154 5 -28 2 -34 -34 -58 -23 -15 -49 -39 -58 -53 -22 -34 -22 -98 0 -140
14 -27 20 -31 36 -22 35 19 97 12 127 -14 26 -23 27 -28 34 -152 14 -259 31
-418 46 -435 19 -22 203 -83 316 -105 86 -17 89 -16 107 2 38 38 87 366 60
399 -20 25 -100 19 -192 -15 -100 -37 -118 -37 -151 -4 -37 36 -41 72 -33 278
7 198 8 201 76 236 64 33 99 34 182 6 131 -44 243 -31 290 34 45 64 28 215
-34 285 -39 45 -72 62 -134 70 -40 5 -58 2 -94 -17z"/>
<path d="M12916 7444 c-3 -9 -6 -18 -6 -20 0 -2 66 -4 148 -4 221 0 248 -20
258 -196 8 -127 28 -174 92 -211 l45 -27 509 -14 c303 -9 513 -11 518 -6 28
28 -15 32 -507 48 -277 9 -513 20 -525 25 -30 12 -64 49 -77 84 -6 16 -11 65
-11 110 -1 117 -37 188 -113 216 -16 6 -95 11 -177 11 -126 0 -149 -2 -154
-16z"/>
<path d="M3608 6083 c-163 -165 -191 -197 -269 -300 -118 -156 -183 -293 -177
-373 4 -60 28 -66 28 -8 0 146 131 344 433 654 133 137 163 174 139 174 -4 0
-74 -66 -154 -147z"/>
<path d="M15184 5782 c-33 -22 -36 -53 -41 -530 -4 -449 -4 -479 14 -512 10
-19 34 -43 53 -53 33 -17 76 -18 745 -14 512 3 720 7 747 16 25 8 43 22 53 41
20 39 54 436 62 727 6 244 2 282 -38 304 -37 20 -1566 40 -1595 21z m1246 -72
c230 -11 246 -13 269 -33 l23 -22 -5 -240 c-7 -302 -33 -622 -53 -652 -8 -13
-26 -26 -41 -29 -36 -9 -664 4 -969 20 -263 13 -286 19 -301 74 -10 35 -9 537
1 716 8 130 10 141 33 164 l25 25 387 -6 c212 -4 496 -11 631 -17z"/>
<path d="M14650 4990 c-113 -4 -302 -11 -420 -14 -118 -4 -336 -11 -485 -16
-148 -6 -303 -10 -342 -10 -72 0 -73 -1 -73 -25 0 -25 1 -26 58 -21 31 3 147
8 257 11 537 14 1230 36 1313 41 82 5 92 8 92 25 0 22 -19 22 -400 9z"/>
<path d="M11860 4661 c0 -6 3 -11 8 -11 4 0 37 -2 75 -3 85 -4 73 11 -16 20
-47 4 -67 3 -67 -6z"/>
<path d="M2932 4403 c-4 -10 -7 -88 -7 -173 0 -155 0 -156 32 -220 18 -36 47
-77 65 -91 18 -14 137 -90 263 -169 243 -152 313 -201 410 -290 135 -123 161
-171 273 -506 199 -597 330 -886 476 -1049 l52 -58 64 12 c35 7 85 21 111 31
l47 19 23 -81 c24 -87 22 -103 -22 -125 -45 -23 -97 -16 -131 17 -17 17 -33
29 -35 26 -13 -13 13 -92 46 -143 108 -167 359 -297 643 -333 100 -12 138 -1
138 41 0 38 -30 97 -74 143 -18 20 -37 52 -40 71 -20 107 -178 306 -343 432
-30 23 -33 24 -63 8 -32 -17 -84 -13 -96 7 -4 5 -33 166 -64 356 -104 618
-148 814 -230 1032 -53 140 -126 297 -180 388 l-32 52 84 -30 c108 -39 342
-156 440 -219 90 -58 137 -117 170 -211 33 -93 33 -310 0 -458 -30 -135 -89
-312 -156 -468 l-53 -124 36 -29 c74 -58 194 -111 251 -111 25 0 185 280 311
543 l47 98 52 -99 c98 -188 226 -334 380 -435 l75 -49 12 -64 c11 -61 59 -184
72 -184 3 0 46 91 95 203 49 111 169 383 267 604 l179 403 -278 625 -277 625
-355 -3 -355 -2 -17 -65 c-23 -83 -48 -233 -48 -287 0 -24 -3 -43 -7 -43 -5 0
-24 10 -43 21 -142 87 -539 229 -845 304 -104 25 -205 50 -223 56 -23 8 -48 7
-90 -2 -82 -19 -338 -16 -432 5 -59 13 -131 16 -343 16 -245 0 -268 -1 -275
-17z"/>
<path d="M6135 4363 c15 -32 50 -111 78 -175 28 -64 53 -116 54 -114 2 2 -16
54 -41 117 -24 63 -53 139 -64 169 -11 32 -27 56 -36 58 -14 3 -12 -6 9 -55z"/>
<path d="M6180 4410 c0 -20 139 -368 180 -451 55 -111 127 -209 187 -254 48
-35 139 -69 169 -63 9 2 77 142 180 373 90 204 167 378 170 388 5 16 -8 17
-177 17 -158 0 -183 -2 -194 -17 -12 -16 -40 -9 -30 8 4 5 -90 9 -239 9 -154
0 -246 -4 -246 -10z"/>
<path d="M14630 4280 c-76 -6 -104 -20 -130 -63 -19 -31 -20 -57 -20 -735 0
-568 3 -709 14 -735 15 -36 75 -93 114 -108 13 -5 266 -15 561 -21 295 -6 537
-11 537 -12 1 0 -9 -91 -22 -201 -13 -110 -23 -208 -23 -217 -1 -16 -12 -18
-92 -18 -50 0 -99 -5 -109 -10 -25 -13 -39 -98 -19 -111 19 -12 1130 -11 1149
1 12 7 13 18 2 67 -6 32 -20 64 -29 71 -10 7 -48 12 -94 12 l-78 0 -6 33 c-3
17 -18 107 -34 199 l-28 167 503 -2 c497 -2 503 -2 531 19 15 12 37 36 48 55
19 32 20 55 23 504 5 615 -14 937 -56 994 -46 63 -64 68 -274 75 -692 23
-2327 47 -2468 36z m1405 -1546 c561 -8 1088 -19 1170 -24 166 -9 -108 -7
-1060 10 -291 5 -744 12 -1005 16 -261 4 -502 10 -535 15 -37 5 31 6 175 3
129 -2 694 -11 1255 -20z m-26 -43 c13 -24 -8 -55 -35 -49 -20 3 -30 29 -20
54 8 20 43 17 55 -5z m-64 -538 c-27 -2 -140 -7 -249 -11 -210 -7 -204 -6
-221 -57 -5 -12 -9 -15 -12 -8 -2 7 2 25 9 40 12 25 19 29 78 34 36 3 151 5
255 5 105 0 168 -1 140 -3z m153 0 c-10 -2 -26 -2 -35 0 -10 3 -2 5 17 5 19 0
27 -2 18 -5z"/>
<path d="M15963 2684 c-8 -21 13 -42 28 -27 13 13 5 43 -11 43 -6 0 -13 -7
-17 -16z"/>
<path d="M6300 3995 c0 -5 5 -17 10 -25 5 -8 10 -10 10 -5 0 6 -5 17 -10 25
-5 8 -10 11 -10 5z"/>
<path d="M7022 3970 c-6 -14 -36 -81 -66 -149 -31 -68 -54 -126 -51 -129 2 -2
19 5 37 16 99 62 139 158 103 252 l-13 35 -10 -25z"/>
<path d="M6340 3906 c18 -50 243 -551 249 -559 6 -6 121 238 121 256 0 2 -19
7 -42 11 -98 16 -221 121 -293 251 -38 67 -51 83 -35 41z"/>
<path d="M12949 3374 c-57 -17 -123 -85 -139 -143 -8 -30 -7 -108 5 -308 8
-147 15 -276 15 -285 0 -11 8 -18 20 -18 24 0 24 8 7 337 -7 122 -9 236 -6
254 9 40 36 78 79 107 l33 22 691 0 c383 0 697 4 705 9 8 5 11 16 8 25 -6 14
-72 16 -689 15 -560 0 -691 -3 -729 -15z"/>
<path d="M6575 2965 c-9 -22 -30 -69 -47 -105 -17 -36 -34 -76 -39 -88 l-9
-24 27 21 c16 12 54 40 86 62 31 22 57 42 57 44 0 2 -13 32 -29 67 l-30 63
-16 -40z"/>
<path d="M6594 2791 c-141 -99 -144 -103 -255 -356 -55 -126 -127 -286 -159
-355 -87 -189 -103 -228 -97 -245 12 -30 175 -139 302 -201 233 -114 535 -195
862 -230 l63 -7 -56 124 c-31 68 -175 392 -321 719 -146 327 -266 596 -267
598 -2 1 -34 -20 -72 -47z"/>
</g>
</svg>
